%TF.GenerationSoftware,Altium Limited,Altium Designer,21.4.1 (30)*%
G04 Layer_Color=8388736*
%FSLAX45Y45*%
%MOMM*%
%TF.SameCoordinates,07A852E0-A263-4F49-A737-320A16F82769*%
%TF.FilePolarity,Negative*%
%TF.FileFunction,Soldermask,Top*%
%TF.Part,Single*%
G01*
G75*
%TA.AperFunction,SMDPad,CuDef*%
%ADD34R,1.00000X1.00000*%
%ADD35R,1.10000X0.80000*%
%TA.AperFunction,ComponentPad*%
%ADD38C,1.90000*%
%ADD39R,1.90000X1.90000*%
%ADD40R,1.90000X1.90000*%
%TA.AperFunction,ConnectorPad*%
%ADD53R,1.45000X0.50000*%
%TA.AperFunction,SMDPad,CuDef*%
G04:AMPARAMS|DCode=59|XSize=1.675mm|YSize=0.5mm|CornerRadius=0mm|HoleSize=0mm|Usage=FLASHONLY|Rotation=225.000|XOffset=0mm|YOffset=0mm|HoleType=Round|Shape=Rectangle|*
%AMROTATEDRECTD59*
4,1,4,0.41543,0.76898,0.76898,0.41543,-0.41543,-0.76898,-0.76898,-0.41543,0.41543,0.76898,0.0*
%
%ADD59ROTATEDRECTD59*%

G04:AMPARAMS|DCode=60|XSize=1.675mm|YSize=0.5mm|CornerRadius=0mm|HoleSize=0mm|Usage=FLASHONLY|Rotation=315.000|XOffset=0mm|YOffset=0mm|HoleType=Round|Shape=Rectangle|*
%AMROTATEDRECTD60*
4,1,4,-0.76898,0.41543,-0.41543,0.76898,0.76898,-0.41543,0.41543,-0.76898,-0.76898,0.41543,0.0*
%
%ADD60ROTATEDRECTD60*%

%ADD61R,2.10000X2.10000*%
%TA.AperFunction,ConnectorPad*%
%ADD62R,1.80000X2.30000*%
%TA.AperFunction,SMDPad,CuDef*%
%ADD63R,1.70000X1.60000*%
%ADD64R,1.00000X1.70000*%
%ADD65R,5.70000X2.20000*%
D34*
X6553200Y4113600D02*
D03*
X6807200Y4112400D02*
D03*
Y3962400D02*
D03*
X6553200Y3963600D02*
D03*
D35*
X7061200Y3963600D02*
D03*
X6299200Y4113600D02*
D03*
X7061200D02*
D03*
X6299200Y3963600D02*
D03*
D38*
X3429000Y4064000D02*
D03*
X3937000Y3810000D02*
D03*
Y4064000D02*
D03*
X7366000Y4508500D02*
D03*
X7112000D02*
D03*
X6858000D02*
D03*
X6604000D02*
D03*
X6350000D02*
D03*
X6096000D02*
D03*
X5842000D02*
D03*
X5588000D02*
D03*
X5334000D02*
D03*
X5080000D02*
D03*
X4826000D02*
D03*
X4572000D02*
D03*
X4318000D02*
D03*
X4064000D02*
D03*
X3825240Y4503420D02*
D03*
X3556000Y4508500D02*
D03*
X3302000D02*
D03*
X3048000D02*
D03*
X2794000D02*
D03*
X7366000Y2857500D02*
D03*
X7112000D02*
D03*
X6858000D02*
D03*
X6604000D02*
D03*
X6350000D02*
D03*
X6096000D02*
D03*
X5842000D02*
D03*
X5588000D02*
D03*
X5334000D02*
D03*
X5080000D02*
D03*
X4826000D02*
D03*
X4572000D02*
D03*
X4318000D02*
D03*
X4064000D02*
D03*
X3825240Y2852420D02*
D03*
X3556000Y2857500D02*
D03*
X3302000D02*
D03*
X3048000D02*
D03*
X2794000D02*
D03*
X7620000Y3810000D02*
D03*
Y3556000D02*
D03*
Y3302000D02*
D03*
X3683000Y3810000D02*
D03*
Y4064000D02*
D03*
D39*
X7620000Y4508500D02*
D03*
Y2857500D02*
D03*
X3429000Y3810000D02*
D03*
D40*
X7620000Y4064000D02*
D03*
D53*
X2922000Y3806000D02*
D03*
Y3611000D02*
D03*
Y3546000D02*
D03*
Y3741000D02*
D03*
Y3676000D02*
D03*
D59*
X5447126Y3788217D02*
D03*
X5411771Y3823573D02*
D03*
X5376415Y3858928D02*
D03*
X5341060Y3894284D02*
D03*
X5305705Y3929639D02*
D03*
X5270349Y3964994D02*
D03*
X5234994Y4000349D02*
D03*
X5199639Y4035705D02*
D03*
X5164284Y4071060D02*
D03*
X5128928Y4106415D02*
D03*
X5093573Y4141771D02*
D03*
X5058217Y4177126D02*
D03*
X4458874Y3577783D02*
D03*
X4494229Y3542427D02*
D03*
X4529585Y3507072D02*
D03*
X4564940Y3471716D02*
D03*
X4600295Y3436361D02*
D03*
X4635651Y3401006D02*
D03*
X4671006Y3365651D02*
D03*
X4706361Y3330295D02*
D03*
X4741716Y3294940D02*
D03*
X4777072Y3259585D02*
D03*
X4812427Y3224229D02*
D03*
X4847783Y3188874D02*
D03*
D60*
Y4177126D02*
D03*
X4812427Y4141771D02*
D03*
X4777072Y4106415D02*
D03*
X4741716Y4071060D02*
D03*
X4706361Y4035705D02*
D03*
X4671006Y4000349D02*
D03*
X4635651Y3964994D02*
D03*
X4600295Y3929639D02*
D03*
X4564940Y3894284D02*
D03*
X4529585Y3858928D02*
D03*
X4494229Y3823573D02*
D03*
X4458874Y3788217D02*
D03*
X5058217Y3188874D02*
D03*
X5093573Y3224229D02*
D03*
X5128928Y3259585D02*
D03*
X5164284Y3294940D02*
D03*
X5199639Y3330295D02*
D03*
X5234994Y3365651D02*
D03*
X5270349Y3401006D02*
D03*
X5305705Y3436361D02*
D03*
X5341060Y3471716D02*
D03*
X5376415Y3507072D02*
D03*
X5411771Y3542427D02*
D03*
X5447126Y3577783D02*
D03*
D61*
X2667000Y3296000D02*
D03*
Y4056000D02*
D03*
Y3556000D02*
D03*
Y3796000D02*
D03*
D62*
X2909500Y3366000D02*
D03*
Y3986000D02*
D03*
D63*
X4073000Y3388360D02*
D03*
X3293000D02*
D03*
D64*
X6124080Y3987800D02*
D03*
X5974080D02*
D03*
D65*
X7015500Y3429000D02*
D03*
X6065500D02*
D03*
%TF.MD5,4e2797ca6f8b0959f4b76a174838f882*%
M02*
