%TF.GenerationSoftware,Altium Limited,Altium Designer,21.4.1 (30)*%
G04 Layer_Color=128*
%FSLAX45Y45*%
%MOMM*%
%TF.SameCoordinates,07A852E0-A263-4F49-A737-320A16F82769*%
%TF.FilePolarity,Positive*%
%TF.FileFunction,Paste,Bot*%
%TF.Part,Single*%
G01*
G75*
%TA.AperFunction,SMDPad,CuDef*%
%ADD41R,0.90000X0.90000*%
%ADD42R,1.30000X0.66000*%
%ADD43R,0.90000X0.90000*%
%ADD44R,1.00000X0.70000*%
%ADD45R,0.70000X1.00000*%
%ADD46R,1.40000X1.00000*%
D41*
X7415600Y3124200D02*
D03*
X7265600D02*
D03*
D42*
X5940920Y3934460D02*
D03*
Y4038460D02*
D03*
X6240920Y3830460D02*
D03*
Y4038460D02*
D03*
X5940920Y3830460D02*
D03*
D43*
X5278120Y4009460D02*
D03*
Y3859460D02*
D03*
X5481320Y3859460D02*
D03*
X6982460Y3336220D02*
D03*
X6779260D02*
D03*
X6576060D02*
D03*
X6372860D02*
D03*
X5941060D02*
D03*
X5737860D02*
D03*
X5534660D02*
D03*
X5331460D02*
D03*
X6700520Y4009460D02*
D03*
X5481320D02*
D03*
X5941060Y3486220D02*
D03*
X5737860D02*
D03*
X5534660D02*
D03*
X5331460D02*
D03*
X6700520Y3859460D02*
D03*
X6372860Y3486220D02*
D03*
X6576060D02*
D03*
X6779260D02*
D03*
X6982460D02*
D03*
D44*
X4216400Y3885000D02*
D03*
X4419600Y3885000D02*
D03*
X4820920Y3859460D02*
D03*
X4216400Y3735000D02*
D03*
X4419600Y3735000D02*
D03*
X4820920Y4009460D02*
D03*
X6169660Y3336220D02*
D03*
Y3486220D02*
D03*
D45*
X3016180Y3832860D02*
D03*
X3018720Y3586480D02*
D03*
X3166180Y3832860D02*
D03*
Y3403600D02*
D03*
X3016180D02*
D03*
X3168720Y3586480D02*
D03*
D46*
X5709920Y4029460D02*
D03*
Y3839460D02*
D03*
X6471920Y4029460D02*
D03*
Y3839460D02*
D03*
X5049520Y4029460D02*
D03*
Y3839460D02*
D03*
%TF.MD5,923ecb8d305f77e30975bf8e25963aec*%
M02*
