%TF.GenerationSoftware,Altium Limited,Altium Designer,21.4.1 (30)*%
G04 Layer_Color=8421504*
%FSLAX45Y45*%
%MOMM*%
%TF.SameCoordinates,07A852E0-A263-4F49-A737-320A16F82769*%
%TF.FilePolarity,Positive*%
%TF.FileFunction,Paste,Top*%
%TF.Part,Single*%
G01*
G75*
%TA.AperFunction,SMDPad,CuDef*%
%ADD43R,0.90000X0.90000*%
%ADD44R,1.00000X0.70000*%
G04:AMPARAMS|DCode=51|XSize=1.575mm|YSize=0.4mm|CornerRadius=0mm|HoleSize=0mm|Usage=FLASHONLY|Rotation=225.000|XOffset=0mm|YOffset=0mm|HoleType=Round|Shape=Rectangle|*
%AMROTATEDRECTD51*
4,1,4,0.41543,0.69827,0.69827,0.41543,-0.41543,-0.69827,-0.69827,-0.41543,0.41543,0.69827,0.0*
%
%ADD51ROTATEDRECTD51*%

G04:AMPARAMS|DCode=52|XSize=1.575mm|YSize=0.4mm|CornerRadius=0mm|HoleSize=0mm|Usage=FLASHONLY|Rotation=315.000|XOffset=0mm|YOffset=0mm|HoleType=Round|Shape=Rectangle|*
%AMROTATEDRECTD52*
4,1,4,-0.69827,0.41543,-0.41543,0.69827,0.69827,-0.41543,0.41543,-0.69827,-0.69827,0.41543,0.0*
%
%ADD52ROTATEDRECTD52*%

%TA.AperFunction,ConnectorPad*%
%ADD53R,1.45000X0.50000*%
%TA.AperFunction,SMDPad,CuDef*%
%ADD54R,2.00000X2.00000*%
%TA.AperFunction,ConnectorPad*%
%ADD55R,1.70000X2.20000*%
%TA.AperFunction,SMDPad,CuDef*%
%ADD56R,1.60000X1.50000*%
%ADD57R,0.90000X1.60000*%
%ADD58R,5.60000X2.10000*%
D43*
X6553200Y4113600D02*
D03*
X6807200Y4112400D02*
D03*
Y3962400D02*
D03*
X6553200Y3963600D02*
D03*
D44*
X7061200Y3963600D02*
D03*
X6299200Y4113600D02*
D03*
X7061200D02*
D03*
X6299200Y3963600D02*
D03*
D51*
X5447126Y3788217D02*
D03*
X5411771Y3823573D02*
D03*
X5376415Y3858928D02*
D03*
X5341060Y3894284D02*
D03*
X5305705Y3929639D02*
D03*
X5270349Y3964994D02*
D03*
X5234994Y4000349D02*
D03*
X5199639Y4035705D02*
D03*
X5164284Y4071060D02*
D03*
X5128928Y4106415D02*
D03*
X5093573Y4141771D02*
D03*
X5058217Y4177126D02*
D03*
X4458874Y3577783D02*
D03*
X4494229Y3542427D02*
D03*
X4529585Y3507072D02*
D03*
X4564940Y3471716D02*
D03*
X4600295Y3436361D02*
D03*
X4635651Y3401006D02*
D03*
X4671006Y3365651D02*
D03*
X4706361Y3330295D02*
D03*
X4741716Y3294940D02*
D03*
X4777072Y3259585D02*
D03*
X4812427Y3224229D02*
D03*
X4847783Y3188874D02*
D03*
D52*
Y4177126D02*
D03*
X4812427Y4141771D02*
D03*
X4777072Y4106415D02*
D03*
X4741716Y4071060D02*
D03*
X4706361Y4035705D02*
D03*
X4671006Y4000349D02*
D03*
X4635651Y3964994D02*
D03*
X4600295Y3929639D02*
D03*
X4564940Y3894284D02*
D03*
X4529585Y3858928D02*
D03*
X4494229Y3823573D02*
D03*
X4458874Y3788217D02*
D03*
X5058217Y3188874D02*
D03*
X5093573Y3224229D02*
D03*
X5128928Y3259585D02*
D03*
X5164284Y3294940D02*
D03*
X5199639Y3330295D02*
D03*
X5234994Y3365651D02*
D03*
X5270349Y3401006D02*
D03*
X5305705Y3436361D02*
D03*
X5341060Y3471716D02*
D03*
X5376415Y3507072D02*
D03*
X5411771Y3542427D02*
D03*
X5447126Y3577783D02*
D03*
D53*
X2922000Y3806000D02*
D03*
Y3611000D02*
D03*
Y3546000D02*
D03*
Y3741000D02*
D03*
Y3676000D02*
D03*
D54*
X2667000Y3296000D02*
D03*
Y4056000D02*
D03*
Y3556000D02*
D03*
Y3796000D02*
D03*
D55*
X2909500Y3366000D02*
D03*
Y3986000D02*
D03*
D56*
X4073000Y3388360D02*
D03*
X3293000D02*
D03*
D57*
X6124080Y3987800D02*
D03*
X5974080D02*
D03*
D58*
X7015500Y3429000D02*
D03*
X6065500D02*
D03*
%TF.MD5,e5a067ba8a2203a08fa0872c5b5a40e6*%
M02*
