%TF.GenerationSoftware,Altium Limited,Altium Designer,21.4.1 (30)*%
G04 Layer_Color=255*
%FSLAX45Y45*%
%MOMM*%
%TF.SameCoordinates,07A852E0-A263-4F49-A737-320A16F82769*%
%TF.FilePolarity,Positive*%
%TF.FileFunction,Pads,Top*%
%TF.Part,Single*%
G01*
G75*
%TA.AperFunction,SMDPad,CuDef*%
G04:AMPARAMS|DCode=10|XSize=1.475mm|YSize=0.3mm|CornerRadius=0mm|HoleSize=0mm|Usage=FLASHONLY|Rotation=225.000|XOffset=0mm|YOffset=0mm|HoleType=Round|Shape=Rectangle|*
%AMROTATEDRECTD10*
4,1,4,0.41543,0.62756,0.62756,0.41543,-0.41543,-0.62756,-0.62756,-0.41543,0.41543,0.62756,0.0*
%
%ADD10ROTATEDRECTD10*%

G04:AMPARAMS|DCode=11|XSize=1.475mm|YSize=0.3mm|CornerRadius=0mm|HoleSize=0mm|Usage=FLASHONLY|Rotation=315.000|XOffset=0mm|YOffset=0mm|HoleType=Round|Shape=Rectangle|*
%AMROTATEDRECTD11*
4,1,4,-0.62756,0.41543,-0.41543,0.62756,0.62756,-0.41543,0.41543,-0.62756,-0.62756,0.41543,0.0*
%
%ADD11ROTATEDRECTD11*%

%TA.AperFunction,ConnectorPad*%
%ADD12R,1.35000X0.40000*%
%TA.AperFunction,SMDPad,CuDef*%
%ADD13R,1.90000X1.90000*%
%TA.AperFunction,ConnectorPad*%
%ADD14R,1.60000X2.10000*%
%TA.AperFunction,SMDPad,CuDef*%
%ADD15R,0.90000X0.60000*%
%ADD16R,1.50000X1.40000*%
%ADD17R,0.80000X0.80000*%
%ADD18R,0.80000X1.50000*%
%ADD19R,5.50000X2.00000*%
%TA.AperFunction,ComponentPad*%
%ADD22C,1.70000*%
%ADD23R,1.70000X1.70000*%
%ADD24R,1.70000X1.70000*%
D10*
X5447126Y3788217D02*
D03*
X5411771Y3823573D02*
D03*
X5376415Y3858928D02*
D03*
X5341060Y3894284D02*
D03*
X5305705Y3929639D02*
D03*
X5270349Y3964994D02*
D03*
X5234994Y4000349D02*
D03*
X5199639Y4035705D02*
D03*
X5164284Y4071060D02*
D03*
X5128928Y4106415D02*
D03*
X5093573Y4141771D02*
D03*
X5058217Y4177126D02*
D03*
X4458874Y3577783D02*
D03*
X4494229Y3542427D02*
D03*
X4529585Y3507072D02*
D03*
X4564940Y3471716D02*
D03*
X4600295Y3436361D02*
D03*
X4635651Y3401006D02*
D03*
X4671006Y3365651D02*
D03*
X4706361Y3330295D02*
D03*
X4741716Y3294940D02*
D03*
X4777072Y3259585D02*
D03*
X4812427Y3224229D02*
D03*
X4847783Y3188874D02*
D03*
D11*
Y4177126D02*
D03*
X4812427Y4141771D02*
D03*
X4777072Y4106415D02*
D03*
X4741716Y4071060D02*
D03*
X4706361Y4035705D02*
D03*
X4671006Y4000349D02*
D03*
X4635651Y3964994D02*
D03*
X4600295Y3929639D02*
D03*
X4564940Y3894284D02*
D03*
X4529585Y3858928D02*
D03*
X4494229Y3823573D02*
D03*
X4458874Y3788217D02*
D03*
X5058217Y3188874D02*
D03*
X5093573Y3224229D02*
D03*
X5128928Y3259585D02*
D03*
X5164284Y3294940D02*
D03*
X5199639Y3330295D02*
D03*
X5234994Y3365651D02*
D03*
X5270349Y3401006D02*
D03*
X5305705Y3436361D02*
D03*
X5341060Y3471716D02*
D03*
X5376415Y3507072D02*
D03*
X5411771Y3542427D02*
D03*
X5447126Y3577783D02*
D03*
D12*
X2922000Y3806000D02*
D03*
Y3611000D02*
D03*
Y3546000D02*
D03*
Y3741000D02*
D03*
Y3676000D02*
D03*
D13*
X2667000Y3296000D02*
D03*
Y4056000D02*
D03*
Y3556000D02*
D03*
Y3796000D02*
D03*
D14*
X2909500Y3366000D02*
D03*
Y3986000D02*
D03*
D15*
X7061200Y3963600D02*
D03*
X6299200Y4113600D02*
D03*
X7061200D02*
D03*
X6299200Y3963600D02*
D03*
D16*
X4073000Y3388360D02*
D03*
X3293000D02*
D03*
D17*
X6553200Y4113600D02*
D03*
X6807200Y4112400D02*
D03*
Y3962400D02*
D03*
X6553200Y3963600D02*
D03*
D18*
X6124080Y3987800D02*
D03*
X5974080D02*
D03*
D19*
X7015500Y3429000D02*
D03*
X6065500D02*
D03*
D22*
X3429000Y4064000D02*
D03*
X3937000Y3810000D02*
D03*
Y4064000D02*
D03*
X7366000Y4508500D02*
D03*
X7112000D02*
D03*
X6858000D02*
D03*
X6604000D02*
D03*
X6350000D02*
D03*
X6096000D02*
D03*
X5842000D02*
D03*
X5588000D02*
D03*
X5334000D02*
D03*
X5080000D02*
D03*
X4826000D02*
D03*
X4572000D02*
D03*
X4318000D02*
D03*
X4064000D02*
D03*
X3825240Y4503420D02*
D03*
X3556000Y4508500D02*
D03*
X3302000D02*
D03*
X3048000D02*
D03*
X2794000D02*
D03*
X7366000Y2857500D02*
D03*
X7112000D02*
D03*
X6858000D02*
D03*
X6604000D02*
D03*
X6350000D02*
D03*
X6096000D02*
D03*
X5842000D02*
D03*
X5588000D02*
D03*
X5334000D02*
D03*
X5080000D02*
D03*
X4826000D02*
D03*
X4572000D02*
D03*
X4318000D02*
D03*
X4064000D02*
D03*
X3825240Y2852420D02*
D03*
X3556000Y2857500D02*
D03*
X3302000D02*
D03*
X3048000D02*
D03*
X2794000D02*
D03*
X7620000Y3810000D02*
D03*
Y3556000D02*
D03*
Y3302000D02*
D03*
X3683000Y3810000D02*
D03*
Y4064000D02*
D03*
D23*
X7620000Y4508500D02*
D03*
Y2857500D02*
D03*
X3429000Y3810000D02*
D03*
D24*
X7620000Y4064000D02*
D03*
%TF.MD5,ffdc38eaa756212f67af88d867ce1edf*%
M02*
