%TF.GenerationSoftware,Altium Limited,Altium Designer,21.4.1 (30)*%
G04 Layer_Physical_Order=1*
G04 Layer_Color=255*
%FSLAX45Y45*%
%MOMM*%
%TF.SameCoordinates,07A852E0-A263-4F49-A737-320A16F82769*%
%TF.FilePolarity,Positive*%
%TF.FileFunction,Copper,L1,Top,Signal*%
%TF.Part,Single*%
G01*
G75*
%TA.AperFunction,SMDPad,CuDef*%
G04:AMPARAMS|DCode=10|XSize=1.475mm|YSize=0.3mm|CornerRadius=0mm|HoleSize=0mm|Usage=FLASHONLY|Rotation=225.000|XOffset=0mm|YOffset=0mm|HoleType=Round|Shape=Rectangle|*
%AMROTATEDRECTD10*
4,1,4,0.41543,0.62756,0.62756,0.41543,-0.41543,-0.62756,-0.62756,-0.41543,0.41543,0.62756,0.0*
%
%ADD10ROTATEDRECTD10*%

G04:AMPARAMS|DCode=11|XSize=1.475mm|YSize=0.3mm|CornerRadius=0mm|HoleSize=0mm|Usage=FLASHONLY|Rotation=315.000|XOffset=0mm|YOffset=0mm|HoleType=Round|Shape=Rectangle|*
%AMROTATEDRECTD11*
4,1,4,-0.62756,0.41543,-0.41543,0.62756,0.62756,-0.41543,0.41543,-0.62756,-0.62756,0.41543,0.0*
%
%ADD11ROTATEDRECTD11*%

%TA.AperFunction,ConnectorPad*%
%ADD12R,1.35000X0.40000*%
%TA.AperFunction,SMDPad,CuDef*%
%ADD13R,1.90000X1.90000*%
%TA.AperFunction,ConnectorPad*%
%ADD14R,1.60000X2.10000*%
%TA.AperFunction,SMDPad,CuDef*%
%ADD15R,0.90000X0.60000*%
%ADD16R,1.50000X1.40000*%
%ADD17R,0.80000X0.80000*%
%ADD18R,0.80000X1.50000*%
%ADD19R,5.50000X2.00000*%
%TA.AperFunction,Conductor*%
%ADD20C,0.30000*%
%ADD21C,0.50000*%
%TA.AperFunction,ComponentPad*%
%ADD22C,1.70000*%
%ADD23R,1.70000X1.70000*%
%ADD24R,1.70000X1.70000*%
%TA.AperFunction,ViaPad*%
%ADD25C,0.60000*%
G36*
X7848600Y2565400D02*
X2565400D01*
Y3181000D01*
X2782000D01*
Y3411000D01*
X2565400D01*
Y3441000D01*
X2782000D01*
Y3670999D01*
X2782000D01*
Y3681001D01*
X2782000D01*
Y3731899D01*
X2794700Y3740385D01*
X2802054Y3737339D01*
X2821946D01*
X2823940Y3738165D01*
X2834500Y3731109D01*
Y3636000D01*
Y3571000D01*
Y3506000D01*
X2892259D01*
X2894399Y3503700D01*
X2888868Y3491000D01*
X2809500D01*
Y3241000D01*
X3009500D01*
Y3487418D01*
X3009500Y3491000D01*
X3018146Y3500118D01*
X3065326D01*
X3082884Y3503611D01*
X3097769Y3513557D01*
X3200503Y3616291D01*
X3210449Y3631176D01*
X3213941Y3648734D01*
Y3996716D01*
X3210449Y4014274D01*
X3200503Y4029159D01*
X3093882Y4135781D01*
Y4413747D01*
X3112471Y4424479D01*
X3132021Y4444029D01*
X3145844Y4467972D01*
X3153000Y4494677D01*
Y4522323D01*
X3145844Y4549028D01*
X3132021Y4572971D01*
X3112471Y4592521D01*
X3088528Y4606344D01*
X3061823Y4613500D01*
X3034177D01*
X3007472Y4606344D01*
X2983529Y4592521D01*
X2963979Y4572971D01*
X2950156Y4549028D01*
X2943000Y4522323D01*
Y4494677D01*
X2950156Y4467972D01*
X2963979Y4444029D01*
X2983529Y4424479D01*
X3002118Y4413747D01*
Y4116776D01*
X2997378Y4111000D01*
X2809500D01*
Y3861000D01*
X2816604D01*
X2818302Y3848389D01*
X2803417Y3838443D01*
X2802313Y3837339D01*
X2802054D01*
X2794700Y3834292D01*
X2782000Y3842778D01*
Y3911000D01*
X2565400D01*
Y3941000D01*
X2782000D01*
Y4171000D01*
X2565400D01*
Y4800600D01*
X7848600D01*
Y2565400D01*
D02*
G37*
%LPC*%
G36*
X2807823Y4613500D02*
X2780177D01*
X2753472Y4606344D01*
X2729529Y4592521D01*
X2709979Y4572971D01*
X2696156Y4549028D01*
X2689000Y4522323D01*
Y4494677D01*
X2696156Y4467972D01*
X2709979Y4444029D01*
X2729529Y4424479D01*
X2753472Y4410656D01*
X2780177Y4403500D01*
X2807823D01*
X2834528Y4410656D01*
X2858471Y4424479D01*
X2878021Y4444029D01*
X2891844Y4467972D01*
X2899000Y4494677D01*
Y4522323D01*
X2891844Y4549028D01*
X2878021Y4572971D01*
X2858471Y4592521D01*
X2834528Y4606344D01*
X2807823Y4613500D01*
D02*
G37*
G36*
X7725000D02*
X7515000D01*
Y4453967D01*
X7414386Y4353353D01*
X7401686Y4358614D01*
Y4409358D01*
X7406528Y4410656D01*
X7430471Y4424479D01*
X7450021Y4444029D01*
X7463844Y4467972D01*
X7471000Y4494677D01*
Y4522323D01*
X7463844Y4549028D01*
X7450021Y4572971D01*
X7430471Y4592521D01*
X7406528Y4606344D01*
X7379823Y4613500D01*
X7352177D01*
X7325472Y4606344D01*
X7301529Y4592521D01*
X7281979Y4572971D01*
X7268156Y4549028D01*
X7261000Y4522323D01*
Y4494677D01*
X7268156Y4467972D01*
X7281979Y4444029D01*
X7301529Y4424479D01*
X7325472Y4410656D01*
X7330314Y4409358D01*
Y3945259D01*
X7211462Y3826406D01*
X6254886D01*
Y3913600D01*
X6364200D01*
Y3927914D01*
X6493200D01*
Y3903600D01*
X6613200D01*
Y4023600D01*
X6493200D01*
Y3999286D01*
X6364200D01*
Y4013600D01*
X6254886D01*
Y4033819D01*
X6284667Y4063600D01*
X6364200D01*
Y4163600D01*
X6376124Y4165474D01*
X6431280D01*
X6444936Y4168191D01*
X6456514Y4175926D01*
X6526418Y4245830D01*
X6907876D01*
X6921533Y4248547D01*
X6933110Y4256283D01*
X7084099Y4407272D01*
X7098177Y4403500D01*
X7125823D01*
X7152528Y4410656D01*
X7176471Y4424479D01*
X7196021Y4444029D01*
X7209844Y4467972D01*
X7217000Y4494677D01*
Y4522323D01*
X7209844Y4549028D01*
X7196021Y4572971D01*
X7176471Y4592521D01*
X7152528Y4606344D01*
X7125823Y4613500D01*
X7098177D01*
X7071472Y4606344D01*
X7047529Y4592521D01*
X7027979Y4572971D01*
X7014156Y4549028D01*
X7007000Y4522323D01*
Y4494677D01*
X7014156Y4467972D01*
X7025030Y4449137D01*
X6920700Y4344807D01*
X6908000Y4350068D01*
Y4356462D01*
X6900388Y4374839D01*
X6893686Y4381541D01*
Y4409358D01*
X6898528Y4410656D01*
X6922471Y4424479D01*
X6942021Y4444029D01*
X6955844Y4467972D01*
X6963000Y4494677D01*
Y4522323D01*
X6955844Y4549028D01*
X6942021Y4572971D01*
X6922471Y4592521D01*
X6898528Y4606344D01*
X6871823Y4613500D01*
X6844177D01*
X6817472Y4606344D01*
X6793529Y4592521D01*
X6773979Y4572971D01*
X6760156Y4549028D01*
X6753000Y4522323D01*
Y4494677D01*
X6760156Y4467972D01*
X6762663Y4463630D01*
X6681235Y4382202D01*
X6511732D01*
X6506472Y4394902D01*
X6537789Y4426219D01*
X6539529Y4424479D01*
X6563472Y4410656D01*
X6590177Y4403500D01*
X6617823D01*
X6644528Y4410656D01*
X6668471Y4424479D01*
X6688021Y4444029D01*
X6701844Y4467972D01*
X6709000Y4494677D01*
Y4522323D01*
X6701844Y4549028D01*
X6688021Y4572971D01*
X6668471Y4592521D01*
X6644528Y4606344D01*
X6617823Y4613500D01*
X6590177D01*
X6563472Y4606344D01*
X6539529Y4592521D01*
X6519979Y4572971D01*
X6506156Y4549028D01*
X6499000Y4522323D01*
Y4494677D01*
X6500334Y4489699D01*
X6356701Y4346066D01*
X6255994D01*
X6250733Y4358766D01*
X6305130Y4413163D01*
X6309472Y4410656D01*
X6336177Y4403500D01*
X6363823D01*
X6390528Y4410656D01*
X6414471Y4424479D01*
X6434021Y4444029D01*
X6447844Y4467972D01*
X6455000Y4494677D01*
Y4522323D01*
X6447844Y4549028D01*
X6434021Y4572971D01*
X6414471Y4592521D01*
X6390528Y4606344D01*
X6363823Y4613500D01*
X6336177D01*
X6309472Y4606344D01*
X6285529Y4592521D01*
X6265979Y4572971D01*
X6252156Y4549028D01*
X6245000Y4522323D01*
Y4494677D01*
X6252156Y4467972D01*
X6254663Y4463630D01*
X6198058Y4407026D01*
X6155641D01*
X6152238Y4419726D01*
X6160471Y4424479D01*
X6180021Y4444029D01*
X6193844Y4467972D01*
X6201000Y4494677D01*
Y4522323D01*
X6193844Y4549028D01*
X6180021Y4572971D01*
X6160471Y4592521D01*
X6136528Y4606344D01*
X6109823Y4613500D01*
X6082177D01*
X6055472Y4606344D01*
X6031529Y4592521D01*
X6011979Y4572971D01*
X5998156Y4549028D01*
X5991000Y4522323D01*
Y4494677D01*
X5998156Y4467972D01*
X6011979Y4444029D01*
X6031529Y4424479D01*
X6039762Y4419726D01*
X6036359Y4407026D01*
X5901641D01*
X5898238Y4419726D01*
X5906471Y4424479D01*
X5926021Y4444029D01*
X5939844Y4467972D01*
X5947000Y4494677D01*
Y4522323D01*
X5939844Y4549028D01*
X5926021Y4572971D01*
X5906471Y4592521D01*
X5882528Y4606344D01*
X5855823Y4613500D01*
X5828177D01*
X5801472Y4606344D01*
X5777529Y4592521D01*
X5757979Y4572971D01*
X5744156Y4549028D01*
X5737000Y4522323D01*
Y4494677D01*
X5744156Y4467972D01*
X5746663Y4463630D01*
X5595139Y4312106D01*
X5458667D01*
X5453806Y4323839D01*
X5543130Y4413163D01*
X5547472Y4410656D01*
X5574177Y4403500D01*
X5601823D01*
X5628528Y4410656D01*
X5652471Y4424479D01*
X5672021Y4444029D01*
X5685844Y4467972D01*
X5693000Y4494677D01*
Y4522323D01*
X5685844Y4549028D01*
X5672021Y4572971D01*
X5652471Y4592521D01*
X5628528Y4606344D01*
X5601823Y4613500D01*
X5574177D01*
X5547472Y4606344D01*
X5523529Y4592521D01*
X5503979Y4572971D01*
X5490156Y4549028D01*
X5483000Y4522323D01*
Y4494677D01*
X5490156Y4467972D01*
X5492663Y4463630D01*
X5391139Y4362106D01*
X5254667D01*
X5249806Y4373839D01*
X5289130Y4413163D01*
X5293472Y4410656D01*
X5320177Y4403500D01*
X5347823D01*
X5374528Y4410656D01*
X5398471Y4424479D01*
X5418021Y4444029D01*
X5431844Y4467972D01*
X5439000Y4494677D01*
Y4522323D01*
X5431844Y4549028D01*
X5418021Y4572971D01*
X5398471Y4592521D01*
X5374528Y4606344D01*
X5347823Y4613500D01*
X5320177D01*
X5293472Y4606344D01*
X5269529Y4592521D01*
X5249979Y4572971D01*
X5236156Y4549028D01*
X5229000Y4522323D01*
Y4494677D01*
X5236156Y4467972D01*
X5238663Y4463630D01*
X5187138Y4412106D01*
X5147574D01*
X5144896Y4422101D01*
X5144798Y4424806D01*
X5164021Y4444029D01*
X5177844Y4467972D01*
X5185000Y4494677D01*
Y4522323D01*
X5177844Y4549028D01*
X5164021Y4572971D01*
X5144471Y4592521D01*
X5120528Y4606344D01*
X5093823Y4613500D01*
X5066177D01*
X5039472Y4606344D01*
X5015529Y4592521D01*
X4995979Y4572971D01*
X4982156Y4549028D01*
X4975000Y4522323D01*
Y4494677D01*
X4975638Y4492296D01*
X4919432Y4436090D01*
X4910021Y4444029D01*
X4923844Y4467972D01*
X4931000Y4494677D01*
Y4522323D01*
X4923844Y4549028D01*
X4910021Y4572971D01*
X4890471Y4592521D01*
X4866528Y4606344D01*
X4839823Y4613500D01*
X4812177D01*
X4785472Y4606344D01*
X4761529Y4592521D01*
X4741979Y4572971D01*
X4728156Y4549028D01*
X4721000Y4522323D01*
Y4494677D01*
X4726904Y4472642D01*
X4597446Y4343184D01*
X4585713Y4348044D01*
Y4403500D01*
X4585823D01*
X4612528Y4410656D01*
X4636471Y4424479D01*
X4656021Y4444029D01*
X4669844Y4467972D01*
X4677000Y4494677D01*
Y4522323D01*
X4669844Y4549028D01*
X4656021Y4572971D01*
X4636471Y4592521D01*
X4612528Y4606344D01*
X4585823Y4613500D01*
X4558177D01*
X4531472Y4606344D01*
X4507529Y4592521D01*
X4487979Y4572971D01*
X4474156Y4549028D01*
X4467000Y4522323D01*
Y4494677D01*
X4474156Y4467972D01*
X4487979Y4444029D01*
X4507529Y4424479D01*
X4514341Y4420546D01*
Y4404619D01*
X4502608Y4399759D01*
X4419765Y4482603D01*
X4423000Y4494677D01*
Y4522323D01*
X4415844Y4549028D01*
X4402021Y4572971D01*
X4382471Y4592521D01*
X4358528Y4606344D01*
X4331823Y4613500D01*
X4304177D01*
X4277472Y4606344D01*
X4253529Y4592521D01*
X4233979Y4572971D01*
X4220156Y4549028D01*
X4213000Y4522323D01*
Y4494677D01*
X4220156Y4467972D01*
X4233979Y4444029D01*
X4241122Y4436886D01*
X4235862Y4424186D01*
X4198782D01*
X4159337Y4463630D01*
X4161844Y4467972D01*
X4169000Y4494677D01*
Y4522323D01*
X4161844Y4549028D01*
X4148021Y4572971D01*
X4128471Y4592521D01*
X4104528Y4606344D01*
X4077823Y4613500D01*
X4050177D01*
X4023472Y4606344D01*
X3999529Y4592521D01*
X3979979Y4572971D01*
X3966156Y4549028D01*
X3959000Y4522323D01*
Y4494677D01*
X3966156Y4467972D01*
X3979979Y4444029D01*
X3999529Y4424479D01*
X4023472Y4410656D01*
X4050177Y4403500D01*
X4077823D01*
X4104528Y4410656D01*
X4108870Y4413163D01*
X4136114Y4385919D01*
X4131253Y4374186D01*
X3994781D01*
X3916859Y4452109D01*
X3923084Y4462892D01*
X3930240Y4489597D01*
Y4517243D01*
X3923084Y4543948D01*
X3909261Y4567891D01*
X3889711Y4587441D01*
X3865768Y4601264D01*
X3839063Y4608420D01*
X3811417D01*
X3784712Y4601264D01*
X3760769Y4587441D01*
X3741219Y4567891D01*
X3727396Y4543948D01*
X3720240Y4517243D01*
Y4489597D01*
X3727396Y4462892D01*
X3741219Y4438949D01*
X3760769Y4419399D01*
X3784712Y4405576D01*
X3811417Y4398420D01*
X3839063D01*
X3863157Y4404876D01*
X3954766Y4313266D01*
X3966344Y4305531D01*
X3980000Y4302814D01*
X4328645D01*
X4355974Y4275485D01*
Y3996853D01*
X4358691Y3983197D01*
X4366426Y3971619D01*
X4404653Y3933392D01*
X4399793Y3921659D01*
X4044874D01*
X4031218Y3918942D01*
X4019641Y3911207D01*
X4001963Y3893529D01*
X4001471Y3894021D01*
X3977528Y3907844D01*
X3950823Y3915000D01*
X3923177D01*
X3896472Y3907844D01*
X3872529Y3894021D01*
X3852979Y3874471D01*
X3839156Y3850528D01*
X3832000Y3823823D01*
Y3796177D01*
X3839156Y3769472D01*
X3852979Y3745529D01*
X3872529Y3725979D01*
X3891118Y3715247D01*
Y3519360D01*
X3894611Y3501802D01*
X3904557Y3486917D01*
X3978000Y3413473D01*
Y3319046D01*
X3388000D01*
Y3478360D01*
X3328686D01*
Y4230718D01*
X3511130Y4413163D01*
X3515472Y4410656D01*
X3542177Y4403500D01*
X3569823D01*
X3596528Y4410656D01*
X3620471Y4424479D01*
X3640021Y4444029D01*
X3653844Y4467972D01*
X3661000Y4494677D01*
Y4522323D01*
X3653844Y4549028D01*
X3640021Y4572971D01*
X3620471Y4592521D01*
X3596528Y4606344D01*
X3569823Y4613500D01*
X3542177D01*
X3515472Y4606344D01*
X3491529Y4592521D01*
X3471979Y4572971D01*
X3458156Y4549028D01*
X3451000Y4522323D01*
Y4494677D01*
X3458156Y4467972D01*
X3460663Y4463630D01*
X3267766Y4270734D01*
X3260031Y4259156D01*
X3257314Y4245500D01*
Y3478360D01*
X3198000D01*
Y3310848D01*
X3194626Y3308594D01*
X2838870Y2952837D01*
X2834528Y2955344D01*
X2807823Y2962500D01*
X2780177D01*
X2753472Y2955344D01*
X2729529Y2941521D01*
X2709979Y2921971D01*
X2696156Y2898028D01*
X2689000Y2871323D01*
Y2843677D01*
X2696156Y2816972D01*
X2709979Y2793029D01*
X2729529Y2773479D01*
X2753472Y2759656D01*
X2780177Y2752500D01*
X2807823D01*
X2834528Y2759656D01*
X2858471Y2773479D01*
X2878021Y2793029D01*
X2891844Y2816972D01*
X2899000Y2843677D01*
Y2871323D01*
X2891844Y2898028D01*
X2889337Y2902370D01*
X3234641Y3247674D01*
X3371113D01*
X3375974Y3235941D01*
X3092870Y2952837D01*
X3088528Y2955344D01*
X3061823Y2962500D01*
X3034177D01*
X3007472Y2955344D01*
X2983529Y2941521D01*
X2963979Y2921971D01*
X2950156Y2898028D01*
X2943000Y2871323D01*
Y2843677D01*
X2950156Y2816972D01*
X2963979Y2793029D01*
X2983529Y2773479D01*
X3007472Y2759656D01*
X3034177Y2752500D01*
X3061823D01*
X3088528Y2759656D01*
X3112471Y2773479D01*
X3132021Y2793029D01*
X3145844Y2816972D01*
X3153000Y2843677D01*
Y2871323D01*
X3145844Y2898028D01*
X3143337Y2902370D01*
X3438642Y3197674D01*
X3575113D01*
X3579974Y3185941D01*
X3346870Y2952837D01*
X3342528Y2955344D01*
X3315823Y2962500D01*
X3288177D01*
X3261472Y2955344D01*
X3237529Y2941521D01*
X3217979Y2921971D01*
X3204156Y2898028D01*
X3197000Y2871323D01*
Y2843677D01*
X3204156Y2816972D01*
X3217979Y2793029D01*
X3237529Y2773479D01*
X3261472Y2759656D01*
X3288177Y2752500D01*
X3315823D01*
X3342528Y2759656D01*
X3366471Y2773479D01*
X3386021Y2793029D01*
X3399844Y2816972D01*
X3407000Y2843677D01*
Y2871323D01*
X3399844Y2898028D01*
X3397337Y2902370D01*
X3642642Y3147674D01*
X3779114D01*
X3783974Y3135941D01*
X3600870Y2952837D01*
X3596528Y2955344D01*
X3569823Y2962500D01*
X3542177D01*
X3515472Y2955344D01*
X3491529Y2941521D01*
X3471979Y2921971D01*
X3458156Y2898028D01*
X3451000Y2871323D01*
Y2843677D01*
X3458156Y2816972D01*
X3471979Y2793029D01*
X3491529Y2773479D01*
X3515472Y2759656D01*
X3542177Y2752500D01*
X3569823D01*
X3596528Y2759656D01*
X3620471Y2773479D01*
X3640021Y2793029D01*
X3653844Y2816972D01*
X3661000Y2843677D01*
Y2871323D01*
X3653844Y2898028D01*
X3651337Y2902370D01*
X3846642Y3097675D01*
X3983114D01*
X3987974Y3085941D01*
X3855144Y2953111D01*
X3839063Y2957420D01*
X3811417D01*
X3784712Y2950264D01*
X3760769Y2936441D01*
X3741219Y2916891D01*
X3727396Y2892948D01*
X3720240Y2866243D01*
Y2838597D01*
X3727396Y2811892D01*
X3741219Y2787949D01*
X3760769Y2768399D01*
X3784712Y2754576D01*
X3811417Y2747420D01*
X3839063D01*
X3865768Y2754576D01*
X3889711Y2768399D01*
X3909261Y2787949D01*
X3923084Y2811892D01*
X3930240Y2838597D01*
Y2866243D01*
X3923084Y2892948D01*
X3913140Y2910172D01*
X4050642Y3047675D01*
X4215259D01*
X4220119Y3035941D01*
X4126713Y2942536D01*
X4104528Y2955344D01*
X4077823Y2962500D01*
X4050177D01*
X4023472Y2955344D01*
X3999529Y2941521D01*
X3979979Y2921971D01*
X3966156Y2898028D01*
X3959000Y2871323D01*
Y2843677D01*
X3966156Y2816972D01*
X3979979Y2793029D01*
X3999529Y2773479D01*
X4023472Y2759656D01*
X4050177Y2752500D01*
X4077823D01*
X4104528Y2759656D01*
X4128471Y2773479D01*
X4148021Y2793029D01*
X4161844Y2816972D01*
X4169000Y2843677D01*
Y2871323D01*
X4166345Y2881232D01*
X4270581Y2985469D01*
X4282314Y2980608D01*
Y2956642D01*
X4277472Y2955344D01*
X4253529Y2941521D01*
X4233979Y2921971D01*
X4220156Y2898028D01*
X4213000Y2871323D01*
Y2843677D01*
X4220156Y2816972D01*
X4233979Y2793029D01*
X4253529Y2773479D01*
X4277472Y2759656D01*
X4304177Y2752500D01*
X4331823D01*
X4358528Y2759656D01*
X4382471Y2773479D01*
X4402021Y2793029D01*
X4415844Y2816972D01*
X4423000Y2843677D01*
Y2871323D01*
X4415844Y2898028D01*
X4402021Y2921971D01*
X4382471Y2941521D01*
X4358528Y2955344D01*
X4353686Y2956642D01*
Y2997863D01*
X4392501Y3036678D01*
X4404234Y3031818D01*
Y2989580D01*
X4406951Y2975924D01*
X4414686Y2964346D01*
X4476663Y2902370D01*
X4474156Y2898028D01*
X4467000Y2871323D01*
Y2843677D01*
X4474156Y2816972D01*
X4487979Y2793029D01*
X4507529Y2773479D01*
X4531472Y2759656D01*
X4558177Y2752500D01*
X4585823D01*
X4612528Y2759656D01*
X4636471Y2773479D01*
X4656021Y2793029D01*
X4669844Y2816972D01*
X4677000Y2843677D01*
Y2871323D01*
X4669844Y2898028D01*
X4656021Y2921971D01*
X4636471Y2941521D01*
X4612528Y2955344D01*
X4585823Y2962500D01*
X4558177D01*
X4531472Y2955344D01*
X4527130Y2952837D01*
X4475606Y3004362D01*
Y3049072D01*
X4529517Y3102984D01*
X4543297Y3098804D01*
X4544595Y3092279D01*
X4552331Y3080702D01*
X4730663Y2902370D01*
X4728156Y2898028D01*
X4721000Y2871323D01*
Y2843677D01*
X4728156Y2816972D01*
X4741979Y2793029D01*
X4761529Y2773479D01*
X4785472Y2759656D01*
X4812177Y2752500D01*
X4839823D01*
X4866528Y2759656D01*
X4890471Y2773479D01*
X4910021Y2793029D01*
X4923844Y2816972D01*
X4931000Y2843677D01*
Y2871323D01*
X4923844Y2898028D01*
X4910021Y2921971D01*
X4890471Y2941521D01*
X4866528Y2955344D01*
X4839823Y2962500D01*
X4812177D01*
X4785472Y2955344D01*
X4781130Y2952837D01*
X4688607Y3045360D01*
X4691587Y3060341D01*
X4699328Y3063547D01*
X4713394Y3077613D01*
X4721006Y3095990D01*
Y3115881D01*
X4713394Y3134258D01*
X4712432Y3135220D01*
Y3144477D01*
X4736014Y3168060D01*
X4770885Y3133189D01*
X4834738Y3197043D01*
X4837661Y3198995D01*
X4889325Y3250659D01*
X4909853Y3230132D01*
Y3229879D01*
X4903771Y3220777D01*
X4901054Y3207121D01*
Y3187825D01*
X4888612Y3175383D01*
X4881000Y3157006D01*
Y3137114D01*
X4888612Y3118737D01*
X4902677Y3104672D01*
X4921054Y3097060D01*
X4940945D01*
X4959323Y3104672D01*
X4972480Y3117829D01*
X4985637Y3104672D01*
X5004014Y3097060D01*
X5023906D01*
X5042283Y3104672D01*
X5056348Y3118737D01*
X5058566Y3124093D01*
X5071023Y3126571D01*
X5099760Y3097834D01*
X5108554Y3106628D01*
X5120287Y3101768D01*
Y2980156D01*
X5100770Y2960638D01*
X5093823Y2962500D01*
X5066177D01*
X5039472Y2955344D01*
X5015529Y2941521D01*
X4995979Y2921971D01*
X4982156Y2898028D01*
X4975000Y2871323D01*
Y2843677D01*
X4982156Y2816972D01*
X4995979Y2793029D01*
X5015529Y2773479D01*
X5039472Y2759656D01*
X5066177Y2752500D01*
X5093823D01*
X5120528Y2759656D01*
X5144471Y2773479D01*
X5164021Y2793029D01*
X5177844Y2816972D01*
X5185000Y2843677D01*
Y2871323D01*
X5177844Y2898028D01*
X5164021Y2921971D01*
X5163529Y2922463D01*
X5181207Y2940141D01*
X5188942Y2951718D01*
X5191659Y2965374D01*
Y3129793D01*
X5203392Y3134653D01*
X5252594Y3085451D01*
Y2941104D01*
X5255311Y2927448D01*
X5255369Y2927361D01*
X5249979Y2921971D01*
X5236156Y2898028D01*
X5229000Y2871323D01*
Y2843677D01*
X5236156Y2816972D01*
X5249979Y2793029D01*
X5269529Y2773479D01*
X5293472Y2759656D01*
X5320177Y2752500D01*
X5347823D01*
X5374528Y2759656D01*
X5398471Y2773479D01*
X5418021Y2793029D01*
X5431844Y2816972D01*
X5439000Y2843677D01*
Y2871323D01*
X5431844Y2898028D01*
X5418021Y2921971D01*
X5398471Y2941521D01*
X5374528Y2955344D01*
X5347823Y2962500D01*
X5323966D01*
Y3068197D01*
X5335699Y3073057D01*
X5497686Y2911070D01*
X5490156Y2898028D01*
X5483000Y2871323D01*
Y2843677D01*
X5490156Y2816972D01*
X5503979Y2793029D01*
X5523529Y2773479D01*
X5547472Y2759656D01*
X5574177Y2752500D01*
X5601823D01*
X5628528Y2759656D01*
X5652471Y2773479D01*
X5672021Y2793029D01*
X5685844Y2816972D01*
X5693000Y2843677D01*
Y2871323D01*
X5685844Y2898028D01*
X5672021Y2921971D01*
X5652471Y2941521D01*
X5628528Y2955344D01*
X5601823Y2962500D01*
X5574177D01*
X5552894Y2956797D01*
X5537050Y2972641D01*
X5541910Y2984374D01*
X5664658D01*
X5746663Y2902370D01*
X5744156Y2898028D01*
X5737000Y2871323D01*
Y2843677D01*
X5744156Y2816972D01*
X5757979Y2793029D01*
X5777529Y2773479D01*
X5801472Y2759656D01*
X5828177Y2752500D01*
X5855823D01*
X5882528Y2759656D01*
X5906471Y2773479D01*
X5926021Y2793029D01*
X5939844Y2816972D01*
X5947000Y2843677D01*
Y2871323D01*
X5939844Y2898028D01*
X5926021Y2921971D01*
X5906471Y2941521D01*
X5882528Y2955344D01*
X5855823Y2962500D01*
X5828177D01*
X5801472Y2955344D01*
X5797130Y2952837D01*
X5714793Y3035174D01*
X5720054Y3047874D01*
X5855158D01*
X6000663Y2902370D01*
X5998156Y2898028D01*
X5991000Y2871323D01*
Y2843677D01*
X5998156Y2816972D01*
X6011979Y2793029D01*
X6031529Y2773479D01*
X6055472Y2759656D01*
X6082177Y2752500D01*
X6109823D01*
X6136528Y2759656D01*
X6160471Y2773479D01*
X6180021Y2793029D01*
X6193844Y2816972D01*
X6201000Y2843677D01*
Y2871323D01*
X6193844Y2898028D01*
X6180021Y2921971D01*
X6160471Y2941521D01*
X6136528Y2955344D01*
X6109823Y2962500D01*
X6082177D01*
X6055472Y2955344D01*
X6051130Y2952837D01*
X5909406Y3094561D01*
X5914267Y3106294D01*
X6050738D01*
X6254663Y2902370D01*
X6252156Y2898028D01*
X6245000Y2871323D01*
Y2843677D01*
X6252156Y2816972D01*
X6265979Y2793029D01*
X6285529Y2773479D01*
X6309472Y2759656D01*
X6336177Y2752500D01*
X6363823D01*
X6390528Y2759656D01*
X6414471Y2773479D01*
X6434021Y2793029D01*
X6447844Y2816972D01*
X6455000Y2843677D01*
Y2871323D01*
X6447844Y2898028D01*
X6434021Y2921971D01*
X6414471Y2941521D01*
X6390528Y2955344D01*
X6363823Y2962500D01*
X6336177D01*
X6309472Y2955344D01*
X6305130Y2952837D01*
X6100873Y3157094D01*
X6106134Y3169794D01*
X6241238D01*
X6508663Y2902370D01*
X6506156Y2898028D01*
X6499000Y2871323D01*
Y2843677D01*
X6506156Y2816972D01*
X6519979Y2793029D01*
X6539529Y2773479D01*
X6563472Y2759656D01*
X6590177Y2752500D01*
X6617823D01*
X6644528Y2759656D01*
X6668471Y2773479D01*
X6688021Y2793029D01*
X6701844Y2816972D01*
X6709000Y2843677D01*
Y2871323D01*
X6701844Y2898028D01*
X6688021Y2921971D01*
X6668471Y2941521D01*
X6644528Y2955344D01*
X6617823Y2962500D01*
X6590177D01*
X6563472Y2955344D01*
X6559130Y2952837D01*
X6303906Y3208061D01*
X6308767Y3219794D01*
X6445239D01*
X6762663Y2902370D01*
X6760156Y2898028D01*
X6753000Y2871323D01*
Y2843677D01*
X6760156Y2816972D01*
X6773979Y2793029D01*
X6793529Y2773479D01*
X6817472Y2759656D01*
X6844177Y2752500D01*
X6871823D01*
X6898528Y2759656D01*
X6922471Y2773479D01*
X6942021Y2793029D01*
X6955844Y2816972D01*
X6963000Y2843677D01*
Y2871323D01*
X6955844Y2898028D01*
X6942021Y2921971D01*
X6922471Y2941521D01*
X6898528Y2955344D01*
X6871823Y2962500D01*
X6844177D01*
X6817472Y2955344D01*
X6813130Y2952837D01*
X6485254Y3280714D01*
X6473676Y3288449D01*
X6460020Y3291166D01*
X5642789D01*
X5501347Y3432608D01*
X5506207Y3444341D01*
X5527164D01*
X5540821Y3447058D01*
X5552398Y3454793D01*
X5625388Y3527783D01*
X5634866D01*
X5653243Y3535395D01*
X5667308Y3549460D01*
X5674920Y3567837D01*
Y3587728D01*
X5667308Y3606105D01*
X5653243Y3620171D01*
X5634866Y3627782D01*
X5614975D01*
X5596597Y3620171D01*
X5582532Y3606105D01*
X5574920Y3587728D01*
Y3578250D01*
X5512383Y3515713D01*
X5488953D01*
X5437005Y3567661D01*
X5434082Y3569614D01*
X5370229Y3633467D01*
X5370229D01*
X5362909Y3639385D01*
X5365918Y3652071D01*
X5377045Y3657750D01*
X5377430Y3657493D01*
X5391086Y3654776D01*
X5420081D01*
X5433737Y3657493D01*
X5445315Y3665228D01*
X5485121Y3705035D01*
X5739973D01*
X5816186Y3628822D01*
Y3549000D01*
X5770500D01*
Y3309000D01*
X6360500D01*
Y3549000D01*
X6215771D01*
X6210511Y3561700D01*
X6212048Y3563237D01*
X6219660Y3581614D01*
Y3601506D01*
X6212048Y3619883D01*
X6197983Y3633948D01*
X6179606Y3641560D01*
X6159714D01*
X6141337Y3633948D01*
X6134635Y3627246D01*
X6075474D01*
X6061817Y3624529D01*
X6050240Y3616794D01*
X6032666Y3599220D01*
X6024931Y3587643D01*
X6022214Y3573986D01*
Y3549000D01*
X5887557D01*
Y3643604D01*
X5884841Y3657260D01*
X5877105Y3668837D01*
X5845230Y3700712D01*
X5853326Y3710577D01*
X5857555Y3707751D01*
X5871212Y3705035D01*
X7276400D01*
X7290057Y3707751D01*
X7301634Y3715487D01*
X7455705Y3869558D01*
X7463440Y3881135D01*
X7466157Y3894791D01*
Y4304190D01*
X7565467Y4403500D01*
X7725000D01*
Y4613500D01*
D02*
G37*
G36*
X7126200Y4163600D02*
X6996200D01*
Y4063600D01*
X7126200D01*
Y4067719D01*
X7187058D01*
X7199898Y4062400D01*
X7219790D01*
X7238167Y4070012D01*
X7252232Y4084077D01*
X7259844Y4102454D01*
Y4122346D01*
X7252232Y4140723D01*
X7238167Y4154788D01*
X7219790Y4162400D01*
X7199898D01*
X7192853Y4159482D01*
X7126200D01*
Y4163600D01*
D02*
G37*
G36*
X3950823Y4169000D02*
X3923177D01*
X3896472Y4161844D01*
X3872529Y4148021D01*
X3852979Y4128471D01*
X3839156Y4104528D01*
X3832000Y4077823D01*
Y4050177D01*
X3839156Y4023472D01*
X3852979Y3999529D01*
X3872529Y3979979D01*
X3896472Y3966156D01*
X3923177Y3959000D01*
X3950823D01*
X3977528Y3966156D01*
X4001471Y3979979D01*
X4021021Y3999529D01*
X4034844Y4023472D01*
X4042000Y4050177D01*
Y4077823D01*
X4034844Y4104528D01*
X4021021Y4128471D01*
X4001471Y4148021D01*
X3977528Y4161844D01*
X3950823Y4169000D01*
D02*
G37*
G36*
X3696823D02*
X3669177D01*
X3642472Y4161844D01*
X3618529Y4148021D01*
X3598979Y4128471D01*
X3585156Y4104528D01*
X3578000Y4077823D01*
Y4050177D01*
X3585156Y4023472D01*
X3598979Y3999529D01*
X3618529Y3979979D01*
X3642472Y3966156D01*
X3669177Y3959000D01*
X3696823D01*
X3723528Y3966156D01*
X3747471Y3979979D01*
X3767021Y3999529D01*
X3780844Y4023472D01*
X3788000Y4050177D01*
Y4077823D01*
X3780844Y4104528D01*
X3767021Y4128471D01*
X3747471Y4148021D01*
X3723528Y4161844D01*
X3696823Y4169000D01*
D02*
G37*
G36*
X6867200Y4022400D02*
X6747200D01*
Y3902400D01*
X6867200D01*
Y3927314D01*
X6996200D01*
Y3913600D01*
X7126200D01*
Y4013600D01*
X6996200D01*
Y3998686D01*
X6867200D01*
Y4022400D01*
D02*
G37*
G36*
X7633823Y3915000D02*
X7606177D01*
X7579472Y3907844D01*
X7555529Y3894021D01*
X7535979Y3874471D01*
X7522156Y3850528D01*
X7515000Y3823823D01*
Y3796177D01*
X7522156Y3769472D01*
X7535979Y3745529D01*
X7555529Y3725979D01*
X7579472Y3712156D01*
X7606177Y3705000D01*
X7633823D01*
X7660528Y3712156D01*
X7684471Y3725979D01*
X7704021Y3745529D01*
X7717844Y3769472D01*
X7725000Y3796177D01*
Y3823823D01*
X7717844Y3850528D01*
X7704021Y3874471D01*
X7684471Y3894021D01*
X7660528Y3907844D01*
X7633823Y3915000D01*
D02*
G37*
G36*
X3696823D02*
X3669177D01*
X3642472Y3907844D01*
X3618529Y3894021D01*
X3598979Y3874471D01*
X3585156Y3850528D01*
X3578000Y3823823D01*
Y3796177D01*
X3585156Y3769472D01*
X3598979Y3745529D01*
X3618529Y3725979D01*
X3642472Y3712156D01*
X3669177Y3705000D01*
X3696823D01*
X3723528Y3712156D01*
X3747471Y3725979D01*
X3767021Y3745529D01*
X3780844Y3769472D01*
X3788000Y3796177D01*
Y3823823D01*
X3780844Y3850528D01*
X3767021Y3874471D01*
X3747471Y3894021D01*
X3723528Y3907844D01*
X3696823Y3915000D01*
D02*
G37*
G36*
X7310500Y3549000D02*
X6720500D01*
Y3465991D01*
X6720328Y3465745D01*
X6707800Y3458552D01*
X6695226Y3463760D01*
X6675334D01*
X6656957Y3456148D01*
X6642892Y3442083D01*
X6635280Y3423706D01*
Y3403814D01*
X6642892Y3385437D01*
X6656957Y3371372D01*
X6675334Y3363760D01*
X6695226D01*
X6707800Y3368968D01*
X6720328Y3361775D01*
X6720500Y3361529D01*
Y3309000D01*
X7310500D01*
Y3549000D01*
D02*
G37*
G36*
X7633823Y3661000D02*
X7606177D01*
X7579472Y3653844D01*
X7555529Y3640021D01*
X7535979Y3620471D01*
X7522156Y3596528D01*
X7515000Y3569823D01*
Y3542177D01*
X7522156Y3515472D01*
X7535979Y3491529D01*
X7555529Y3471979D01*
X7579472Y3458156D01*
X7606177Y3451000D01*
X7633823D01*
X7660528Y3458156D01*
X7684471Y3471979D01*
X7704021Y3491529D01*
X7717844Y3515472D01*
X7725000Y3542177D01*
Y3569823D01*
X7717844Y3596528D01*
X7704021Y3620471D01*
X7684471Y3640021D01*
X7660528Y3653844D01*
X7633823Y3661000D01*
D02*
G37*
G36*
Y3407000D02*
X7606177D01*
X7579472Y3399844D01*
X7555529Y3386021D01*
X7535979Y3366471D01*
X7522156Y3342528D01*
X7515000Y3315823D01*
Y3288177D01*
X7522156Y3261472D01*
X7535979Y3237529D01*
X7555529Y3217979D01*
X7579472Y3204156D01*
X7606177Y3197000D01*
X7633823D01*
X7660528Y3204156D01*
X7684471Y3217979D01*
X7704021Y3237529D01*
X7717844Y3261472D01*
X7725000Y3288177D01*
Y3315823D01*
X7717844Y3342528D01*
X7704021Y3366471D01*
X7684471Y3386021D01*
X7660528Y3399844D01*
X7633823Y3407000D01*
D02*
G37*
G36*
X7379823Y2962500D02*
X7352177D01*
X7325472Y2955344D01*
X7301529Y2941521D01*
X7281979Y2921971D01*
X7268156Y2898028D01*
X7261000Y2871323D01*
Y2843677D01*
X7268156Y2816972D01*
X7281979Y2793029D01*
X7301529Y2773479D01*
X7325472Y2759656D01*
X7352177Y2752500D01*
X7379823D01*
X7406528Y2759656D01*
X7430471Y2773479D01*
X7450021Y2793029D01*
X7463844Y2816972D01*
X7471000Y2843677D01*
Y2871323D01*
X7463844Y2898028D01*
X7450021Y2921971D01*
X7430471Y2941521D01*
X7406528Y2955344D01*
X7379823Y2962500D01*
D02*
G37*
G36*
X7125823D02*
X7098177D01*
X7071472Y2955344D01*
X7047529Y2941521D01*
X7027979Y2921971D01*
X7014156Y2898028D01*
X7007000Y2871323D01*
Y2843677D01*
X7014156Y2816972D01*
X7027979Y2793029D01*
X7047529Y2773479D01*
X7071472Y2759656D01*
X7098177Y2752500D01*
X7125823D01*
X7152528Y2759656D01*
X7176471Y2773479D01*
X7196021Y2793029D01*
X7209844Y2816972D01*
X7217000Y2843677D01*
Y2871323D01*
X7209844Y2898028D01*
X7196021Y2921971D01*
X7176471Y2941521D01*
X7152528Y2955344D01*
X7125823Y2962500D01*
D02*
G37*
%LPD*%
G36*
X5240462Y4139147D02*
X5241181Y4126745D01*
X5239728Y4125291D01*
X5236805Y4123339D01*
X5174405Y4060939D01*
X5172452Y4058016D01*
X5108599Y3994162D01*
X5120343Y3982419D01*
X5115482Y3970685D01*
X4969545D01*
X4962843Y3977388D01*
X4944466Y3985000D01*
X4924574D01*
X4906197Y3977388D01*
X4892132Y3963323D01*
X4884520Y3944945D01*
Y3925054D01*
X4892132Y3906677D01*
X4906197Y3892612D01*
X4924574Y3885000D01*
X4944466D01*
X4962843Y3892612D01*
X4969545Y3899314D01*
X5148979D01*
X5157620Y3887950D01*
Y3782254D01*
X5160336Y3768597D01*
X5168072Y3757020D01*
X5264345Y3660747D01*
Y3651269D01*
X5271957Y3632891D01*
X5286022Y3618826D01*
X5304399Y3611214D01*
X5324291D01*
X5334062Y3615262D01*
X5341257Y3604495D01*
X5264647Y3527886D01*
X5205973Y3586560D01*
Y3587728D01*
X5198361Y3606105D01*
X5184296Y3620171D01*
X5165919Y3627782D01*
X5146028D01*
X5127650Y3620171D01*
X5113585Y3606105D01*
X5105973Y3587728D01*
Y3567837D01*
X5113585Y3549460D01*
X5127650Y3535395D01*
X5146028Y3527783D01*
X5163816D01*
X5214180Y3477419D01*
X5143954Y3407193D01*
X5073244Y3336482D01*
X4992099Y3255338D01*
X4978832Y3258493D01*
X4978052Y3259252D01*
X4970772Y3270147D01*
X4929056Y3311863D01*
X4917479Y3319599D01*
X4903823Y3322315D01*
X4874828D01*
X4861171Y3319599D01*
X4854259Y3314980D01*
X4783259Y3385980D01*
X4712548Y3456691D01*
X4641838Y3527401D01*
X4571127Y3598112D01*
X4500416Y3668822D01*
X4436563Y3604969D01*
X4433640Y3603016D01*
X4179733Y3349109D01*
X4168000Y3353969D01*
Y3478360D01*
X4042887D01*
X3982882Y3538365D01*
Y3715247D01*
X4001471Y3725979D01*
X4021021Y3745529D01*
X4034844Y3769472D01*
X4042000Y3796177D01*
Y3823823D01*
X4040138Y3830770D01*
X4059656Y3850287D01*
X4417047D01*
X4468995Y3798339D01*
X4471918Y3796386D01*
X4535771Y3732533D01*
X4616021Y3812782D01*
X4627754Y3807922D01*
Y3768825D01*
X4621052Y3762123D01*
X4613440Y3743746D01*
Y3723854D01*
X4621052Y3705477D01*
X4635117Y3691412D01*
X4653494Y3683800D01*
X4673386D01*
X4691763Y3691412D01*
X4705828Y3705477D01*
X4713440Y3723854D01*
Y3743746D01*
X4705828Y3762123D01*
X4699126Y3768825D01*
Y3866494D01*
X4696409Y3880150D01*
X4691194Y3887955D01*
X4783259Y3980020D01*
X4871820Y4068581D01*
X4884520Y4063321D01*
Y4061115D01*
X4892132Y4042737D01*
X4906197Y4028672D01*
X4924574Y4021060D01*
X4944466D01*
X4962843Y4028672D01*
X4976908Y4042737D01*
X4979585Y4049202D01*
X4983125Y4051567D01*
X5017160Y4085601D01*
X5087386Y4015376D01*
X5151239Y4079229D01*
X5154162Y4081182D01*
X5213715Y4140735D01*
X5239981D01*
X5240462Y4139147D01*
D02*
G37*
D10*
X5447126Y3788217D02*
D03*
X5411771Y3823573D02*
D03*
X5376415Y3858928D02*
D03*
X5341060Y3894284D02*
D03*
X5305705Y3929639D02*
D03*
X5270349Y3964994D02*
D03*
X5234994Y4000349D02*
D03*
X5199639Y4035705D02*
D03*
X5164284Y4071060D02*
D03*
X5128928Y4106415D02*
D03*
X5093573Y4141771D02*
D03*
X5058217Y4177126D02*
D03*
X4458874Y3577783D02*
D03*
X4494229Y3542427D02*
D03*
X4529585Y3507072D02*
D03*
X4564940Y3471716D02*
D03*
X4600295Y3436361D02*
D03*
X4635651Y3401006D02*
D03*
X4671006Y3365651D02*
D03*
X4706361Y3330295D02*
D03*
X4741716Y3294940D02*
D03*
X4777072Y3259585D02*
D03*
X4812427Y3224229D02*
D03*
X4847783Y3188874D02*
D03*
D11*
Y4177126D02*
D03*
X4812427Y4141771D02*
D03*
X4777072Y4106415D02*
D03*
X4741716Y4071060D02*
D03*
X4706361Y4035705D02*
D03*
X4671006Y4000349D02*
D03*
X4635651Y3964994D02*
D03*
X4600295Y3929639D02*
D03*
X4564940Y3894284D02*
D03*
X4529585Y3858928D02*
D03*
X4494229Y3823573D02*
D03*
X4458874Y3788217D02*
D03*
X5058217Y3188874D02*
D03*
X5093573Y3224229D02*
D03*
X5128928Y3259585D02*
D03*
X5164284Y3294940D02*
D03*
X5199639Y3330295D02*
D03*
X5234994Y3365651D02*
D03*
X5270349Y3401006D02*
D03*
X5305705Y3436361D02*
D03*
X5341060Y3471716D02*
D03*
X5376415Y3507072D02*
D03*
X5411771Y3542427D02*
D03*
X5447126Y3577783D02*
D03*
D12*
X2922000Y3806000D02*
D03*
Y3611000D02*
D03*
Y3546000D02*
D03*
Y3741000D02*
D03*
Y3676000D02*
D03*
D13*
X2667000Y3296000D02*
D03*
Y4056000D02*
D03*
Y3556000D02*
D03*
Y3796000D02*
D03*
D14*
X2909500Y3366000D02*
D03*
Y3986000D02*
D03*
D15*
X7061200Y3963600D02*
D03*
X6299200Y4113600D02*
D03*
X7061200D02*
D03*
X6299200Y3963600D02*
D03*
D16*
X4073000Y3388360D02*
D03*
X3293000D02*
D03*
D17*
X6553200Y4113600D02*
D03*
X6807200Y4112400D02*
D03*
Y3962400D02*
D03*
X6553200Y3963600D02*
D03*
D18*
X6124080Y3987800D02*
D03*
X5974080D02*
D03*
D19*
X7015500Y3429000D02*
D03*
X6065500D02*
D03*
D20*
X2922210Y3741210D02*
X3057452D01*
X3077982Y3761740D02*
X3086100D01*
X3057452Y3741210D02*
X3077982Y3761740D01*
X2922000Y3741000D02*
X2922210Y3741210D01*
X2923900Y3677900D02*
X3091160D01*
X3093060Y3679800D01*
X2922000Y3676000D02*
X2923900Y3677900D01*
X5262039Y4098105D02*
X5537248D01*
X5199639Y4035705D02*
X5262039Y4098105D01*
X5537248D02*
X5574414Y4060939D01*
X5582532D01*
X4812427Y3224229D02*
X4874828Y3286629D01*
X4903823D01*
X4945538Y3244914D01*
X4936740Y3207121D02*
X4945538Y3215919D01*
Y3244914D01*
X4936740Y3152800D02*
Y3207121D01*
X4931000Y3147060D02*
X4936740Y3152800D01*
X5474171Y3480027D02*
X5527164D01*
X5467456Y3486742D02*
X5474171Y3480027D01*
X5411771Y3542427D02*
X5467456Y3486742D01*
X5527164Y3480027D02*
X5624920Y3577783D01*
X4044874Y3885973D02*
X4431829D01*
X4494229Y3823573D01*
X3968901Y3810000D02*
X4044874Y3885973D01*
X3937000Y3810000D02*
X3968901D01*
X7430471Y4318971D02*
X7620000Y4508500D01*
X7430471Y3894791D02*
Y4318971D01*
X7276400Y3740720D02*
X7430471Y3894791D01*
X5871212Y3740720D02*
X7276400D01*
X5447126Y3788217D02*
X5488669Y3829760D01*
X5782172D01*
X5871212Y3740720D01*
X5609920Y4276420D02*
X5842000Y4508500D01*
X5022361Y4276420D02*
X5609920D01*
X4885425Y4139484D02*
X5022361Y4276420D01*
X4885425Y4139484D02*
X4885425D01*
X4847783Y4177126D02*
X4885425Y4139484D01*
X5869940Y3083560D02*
X6096000Y2857500D01*
X5517084Y3083560D02*
X5869940D01*
X5234994Y3365650D02*
X5517084Y3083560D01*
X5234994Y3365650D02*
X5234994Y3365651D01*
X4550027Y4121328D02*
X4671006Y4000349D01*
X4550027Y4121328D02*
Y4486527D01*
X4572000Y4508500D01*
X5270350Y3401006D02*
X5529376Y3141980D01*
X5270349Y3401006D02*
X5270350D01*
X5529376Y3141980D02*
X6065520D01*
X6350000Y2857500D01*
X3302000D02*
X3627860Y3183360D01*
X4205873D01*
X4529585Y3507072D01*
X4247294Y3083360D02*
X4600295Y3436361D01*
X4035860Y3083360D02*
X4247294D01*
X3810000Y2857500D02*
X4035860Y3083360D01*
X5093573Y3224229D02*
X5155973Y3161829D01*
Y2965374D02*
Y3161829D01*
X5080000Y2889401D02*
X5155973Y2965374D01*
X5080000Y2857500D02*
Y2889401D01*
X4957892Y4076800D02*
X5058217Y4177126D01*
X4940260Y4076800D02*
X4957892D01*
X4934520Y4071060D02*
X4940260Y4076800D01*
X5679440Y3020060D02*
X5842000Y2857500D01*
X5509874Y3020060D02*
X5679440D01*
X5199639Y3330295D02*
X5509874Y3020060D01*
X4500027Y4100618D02*
X4635651Y3964994D01*
X4500027Y4100618D02*
Y4351873D01*
X4343400Y4508500D02*
X4500027Y4351873D01*
X4318000Y4508500D02*
X4343400D01*
X4813230D02*
X4826000D01*
X4600027Y4295297D02*
X4813230Y4508500D01*
X4600027Y4142039D02*
Y4295297D01*
Y4142039D02*
X4706361Y4035705D01*
X3048000Y2857500D02*
X3423860Y3233360D01*
X4185162D01*
X4494229Y3542427D01*
X4750027Y4204171D02*
Y4233166D01*
Y4204171D02*
X4812427Y4141771D01*
X4750027Y4233166D02*
X4791743Y4274882D01*
X4950112D01*
X5001650Y4326420D01*
X5405920D01*
X5588000Y4508500D01*
X4092145Y2857500D02*
X4635651Y3401006D01*
X4064000Y2857500D02*
X4092145D01*
X5176684Y3211828D02*
Y3211829D01*
Y3211828D02*
X5288280Y3100232D01*
X5128928Y3259585D02*
X5176684Y3211829D01*
X5288280Y2941104D02*
Y3100232D01*
Y2941104D02*
X5334000Y2895384D01*
Y2857500D02*
Y2895384D01*
X4318000Y2857500D02*
Y3012644D01*
X4629463Y3324107D01*
Y3324108D01*
X4671006Y3365651D01*
X4164451Y3283360D02*
X4458874Y3577783D01*
X3219860Y3283360D02*
X4164451D01*
X2794000Y2857500D02*
X3219860Y3283360D01*
X6212840Y4371340D02*
X6350000Y4508500D01*
X5834842Y4371340D02*
X6212840D01*
X5689923Y4226420D02*
X5834842Y4371340D01*
X5178222Y4226420D02*
X5689923D01*
X5093573Y4141771D02*
X5178222Y4226420D01*
X5588000Y2857500D02*
Y2871223D01*
X5164284Y3294940D02*
X5588000Y2871223D01*
X5341060Y3471716D02*
X5607297Y3205480D01*
X6256020D01*
X6604000Y2857500D01*
X5042310Y4508500D02*
X5080000D01*
X4911959Y4378150D02*
X5042310Y4508500D01*
X4753590Y4378150D02*
X4911959D01*
X4650027Y4274587D02*
X4753590Y4378150D01*
X4650027Y4162750D02*
Y4274587D01*
Y4162750D02*
X4741716Y4071060D01*
X4700027Y4183460D02*
X4777072Y4106415D01*
X4700027Y4183460D02*
Y4253877D01*
X4771032Y4324882D01*
X4929402D01*
X4980940Y4376420D01*
X5201920D01*
X5334000Y4508500D01*
X5128928Y4106415D02*
X5198933Y4176420D01*
X5765800D01*
X5899760Y4310380D01*
X6371483D01*
X6569603Y4508500D01*
X6604000D01*
X4450027Y4009196D02*
X4564940Y3894284D01*
X4450027Y4009196D02*
Y4320183D01*
X4381710Y4388500D02*
X4450027Y4320183D01*
X4184000Y4388500D02*
X4381710D01*
X4064000Y4508500D02*
X4184000Y4388500D01*
X3556000Y2857500D02*
X3831860Y3133360D01*
X4226584D01*
X4564940Y3471716D01*
X6460020Y3255480D02*
X6858000Y2857500D01*
X5628007Y3255480D02*
X6460020D01*
X5376415Y3507072D02*
X5628007Y3255480D01*
X3293000Y3388360D02*
Y4245500D01*
X3556000Y4508500D01*
X5169645Y3935000D02*
X5234994Y4000349D01*
X4934520Y3935000D02*
X5169645D01*
X5474171Y3885973D02*
X5840699D01*
X5453460Y3935973D02*
X5863347D01*
X5840699Y3885973D02*
X5935952Y3790720D01*
X5434577Y3987800D02*
X5974080D01*
X5341060Y3894284D02*
X5434577Y3987800D01*
X5863347Y3935973D02*
X5899080Y3900240D01*
X5470340Y3740720D02*
X5754755D01*
X5391086Y3690462D02*
X5420081D01*
X5754755Y3740720D02*
X5851871Y3643604D01*
X5420081Y3690462D02*
X5470340Y3740720D01*
X5243305Y3838243D02*
X5391086Y3690462D01*
X7366000Y3930477D02*
Y4508500D01*
X5935952Y3790720D02*
X6219660D01*
X7226243D01*
X6219200Y3791180D02*
Y4048600D01*
Y3791180D02*
X6219660Y3790720D01*
X7226243D02*
X7366000Y3930477D01*
X5919583Y3877800D02*
X6049080D01*
X6124080Y3952800D01*
X5899080Y3898303D02*
X5919583Y3877800D01*
X5851871Y3514000D02*
Y3643604D01*
X5936872Y3429000D02*
X6065500D01*
X5851871Y3514000D02*
X5936872Y3429000D01*
X6219200Y4048600D02*
X6284200Y4113600D01*
X6299200D01*
X6147420Y4107800D02*
X6240780Y4201160D01*
X6147420Y4011140D02*
Y4107800D01*
X6240780Y4201160D02*
X6431280D01*
X6124080Y3987800D02*
X6147420Y4011140D01*
X4391660Y3996853D02*
Y4290266D01*
Y3996853D02*
X4529585Y3858928D01*
X6205780Y4254500D02*
X6403340D01*
X5974080Y4022800D02*
X6205780Y4254500D01*
X5193306Y3782254D02*
X5314345Y3661214D01*
X5193306Y3782254D02*
Y3887950D01*
X6057900Y3436600D02*
X6065500Y3429000D01*
X6075474Y3591560D02*
X6169660D01*
X6057900Y3573986D02*
X6075474Y3591560D01*
X6057900Y3436600D02*
Y3573986D01*
X6807800Y3963000D02*
X7060600D01*
X7061200Y3963600D01*
X6858000Y4346516D02*
Y4508500D01*
X6907876Y4281516D02*
X7112000Y4485640D01*
X6511636Y4281516D02*
X6907876D01*
X6125280Y3874700D02*
Y3952800D01*
X6431280Y4201160D02*
X6511636Y4281516D01*
X6125280Y3874700D02*
X6126480Y3873500D01*
X6685280Y3413760D02*
X7000260D01*
X7015500Y3429000D01*
X5193306Y3887950D02*
X5270349Y3964994D01*
X5243305Y3838243D02*
Y3867239D01*
X5305705Y3929639D01*
X5270349Y3964994D02*
Y3964994D01*
X5899080Y3898303D02*
Y3900240D01*
X5376415Y3858928D02*
X5453460Y3935973D01*
X5411771Y3823573D02*
X5474171Y3885973D01*
X6124080Y3952800D02*
Y3987800D01*
X6403340Y4254500D02*
X6495356Y4346516D01*
X6696016D01*
X6858000Y4508500D01*
X5974080Y3987800D02*
Y4022800D01*
X7112000Y4485640D02*
Y4508500D01*
X6299200Y3963600D02*
X6553200D01*
X6299200Y3963600D02*
X6299200Y3963600D01*
X6807200Y3962400D02*
X6807800Y3963000D01*
X5013960Y3147060D02*
X5056996Y3190095D01*
X5013960Y3147060D02*
X5013960D01*
X5056996Y3190095D02*
X5058217Y3188874D01*
X4676746Y3159259D02*
X4777072Y3259585D01*
X4676746Y3111676D02*
Y3159259D01*
X4671006Y3105935D02*
X4676746Y3111676D01*
X5161713Y3572042D02*
X5170024D01*
X5305705Y3436361D01*
X5155973Y3577783D02*
X5161713Y3572042D01*
X4577565Y3130788D02*
X4741716Y3294940D01*
X4577565Y3105935D02*
Y3130788D01*
Y3105935D02*
X4826000Y2857500D01*
X4439920Y3063854D02*
X4706361Y3330295D01*
X4439920Y2989580D02*
X4572000Y2857500D01*
X4439920Y2989580D02*
Y3063854D01*
X4343426Y4338500D02*
X4391660Y4290266D01*
X3980000Y4338500D02*
X4343426D01*
X3810000Y4508500D02*
X3980000Y4338500D01*
X4663440Y3733800D02*
Y3866494D01*
X4600295Y3929639D02*
X4663440Y3866494D01*
D21*
X2835860Y3806000D02*
X2922000D01*
X2922000Y3806000D01*
X2817199Y3787339D02*
X2835860Y3806000D01*
X2812000Y3787339D02*
X2817199D01*
X3048000Y4116776D02*
Y4508500D01*
Y4116776D02*
X3168060Y3996716D01*
Y3648734D02*
Y3996716D01*
X3065326Y3546000D02*
X3168060Y3648734D01*
X2922000Y3546000D02*
X3065326D01*
X2922000D02*
Y3611000D01*
X7061200Y4113600D02*
X7208644D01*
X7209844Y4112400D01*
X4068000Y3388360D02*
X4073000D01*
X3937000Y3519360D02*
X4068000Y3388360D01*
X3937000Y3519360D02*
Y3810000D01*
D22*
X3429000Y4064000D02*
D03*
X3937000Y3810000D02*
D03*
Y4064000D02*
D03*
X7366000Y4508500D02*
D03*
X7112000D02*
D03*
X6858000D02*
D03*
X6604000D02*
D03*
X6350000D02*
D03*
X6096000D02*
D03*
X5842000D02*
D03*
X5588000D02*
D03*
X5334000D02*
D03*
X5080000D02*
D03*
X4826000D02*
D03*
X4572000D02*
D03*
X4318000D02*
D03*
X4064000D02*
D03*
X3825240Y4503420D02*
D03*
X3556000Y4508500D02*
D03*
X3302000D02*
D03*
X3048000D02*
D03*
X2794000D02*
D03*
X7366000Y2857500D02*
D03*
X7112000D02*
D03*
X6858000D02*
D03*
X6604000D02*
D03*
X6350000D02*
D03*
X6096000D02*
D03*
X5842000D02*
D03*
X5588000D02*
D03*
X5334000D02*
D03*
X5080000D02*
D03*
X4826000D02*
D03*
X4572000D02*
D03*
X4318000D02*
D03*
X4064000D02*
D03*
X3825240Y2852420D02*
D03*
X3556000Y2857500D02*
D03*
X3302000D02*
D03*
X3048000D02*
D03*
X2794000D02*
D03*
X7620000Y3810000D02*
D03*
Y3556000D02*
D03*
Y3302000D02*
D03*
X3683000Y3810000D02*
D03*
Y4064000D02*
D03*
D23*
X7620000Y4508500D02*
D03*
Y2857500D02*
D03*
X3429000Y3810000D02*
D03*
D24*
X7620000Y4064000D02*
D03*
D25*
X3086100Y3761740D02*
D03*
X3093060Y3679800D02*
D03*
X2812000Y3787339D02*
D03*
X5582532Y4060939D02*
D03*
X4931000Y3147060D02*
D03*
X7209844Y4112400D02*
D03*
X5624920Y3577783D02*
D03*
X5943600Y3616794D02*
D03*
X4904197Y3768657D02*
D03*
X6920700Y3859460D02*
D03*
X4097020Y3637280D02*
D03*
X4031218D02*
D03*
X3767021D02*
D03*
X3831860D02*
D03*
X7633823Y3126740D02*
D03*
X7555529D02*
D03*
X4934520Y4071060D02*
D03*
Y3935000D02*
D03*
X5314345Y3661214D02*
D03*
X6169660Y3591560D02*
D03*
X6858000Y4346516D02*
D03*
X6126480Y3873500D02*
D03*
X6685280Y3413760D02*
D03*
X5013960Y3147060D02*
D03*
X4671006Y3105935D02*
D03*
X5155973Y3577783D02*
D03*
X4663440Y3733800D02*
D03*
%TF.MD5,77b4ab2e3bcfc976692dad044f56ea5b*%
M02*
