%TF.GenerationSoftware,Altium Limited,Altium Designer,21.4.1 (30)*%
G04 Layer_Color=32896*
%FSLAX45Y45*%
%MOMM*%
%TF.SameCoordinates,07A852E0-A263-4F49-A737-320A16F82769*%
%TF.FilePolarity,Positive*%
%TF.FileFunction,Legend,Bot*%
%TF.Part,Single*%
G01*
G75*
%TA.AperFunction,NonConductor*%
%ADD30C,0.20000*%
%ADD31C,0.12700*%
D30*
X5278120Y3787260D02*
X5346700D01*
Y3787140D02*
Y4081780D01*
X5207000D02*
X5346700D01*
X5207000Y3787140D02*
Y4081780D01*
Y3787260D02*
X5278120D01*
X7193400Y3055620D02*
Y3124200D01*
X7193280Y3055620D02*
X7487920D01*
Y3195320D01*
X7193280D02*
X7487920D01*
X7193400Y3124200D02*
Y3195320D01*
X5806440Y3764280D02*
Y4099560D01*
X5613400Y3764280D02*
X5806440D01*
X5613400D02*
Y4102100D01*
X5806440D01*
X6568440Y3764280D02*
Y4099560D01*
X6375400Y3764280D02*
X6568440D01*
X6375400D02*
Y4102100D01*
X6568440D01*
X5970920Y3774460D02*
X6210300Y3774440D01*
X6210920Y3884460D02*
Y3984460D01*
X5970920Y4094460D02*
X6210920D01*
X4820920Y4069200D02*
X4897120D01*
Y3802380D02*
Y4066660D01*
X4744720Y3802380D02*
X4897120D01*
X4744720D02*
Y4066660D01*
Y4069200D02*
X4820920D01*
X4953000Y3766820D02*
X5146040D01*
Y4104640D01*
X4953000D02*
X5146040D01*
X4953000Y3769360D02*
Y4104640D01*
X5412740Y4081660D02*
X5481320D01*
X5412740Y3787140D02*
Y4081780D01*
Y3787140D02*
X5552440D01*
Y4081780D01*
X5481320Y4081660D02*
X5552440D01*
X6631940D02*
X6700520D01*
X6631940Y3787140D02*
Y4081780D01*
Y3787140D02*
X6771640D01*
Y4081780D01*
X6700520Y4081660D02*
X6771640D01*
X5260340Y3264020D02*
X5331460D01*
X5260340Y3263900D02*
Y3558540D01*
X5400040D01*
Y3263900D02*
Y3558540D01*
X5331460Y3264020D02*
X5400040D01*
X5534660D02*
X5603240D01*
Y3263900D02*
Y3558540D01*
X5463540D02*
X5603240D01*
X5463540Y3263900D02*
Y3558540D01*
Y3264020D02*
X5534660D01*
X5666740D02*
X5737860D01*
X5666740Y3263900D02*
Y3558540D01*
X5806440D01*
Y3263900D02*
Y3558540D01*
X5737860Y3264020D02*
X5806440D01*
X5941060D02*
X6009640D01*
Y3263900D02*
Y3558540D01*
X5869940D02*
X6009640D01*
X5869940Y3263900D02*
Y3558540D01*
Y3264020D02*
X5941060D01*
X6093460Y3276480D02*
X6169660D01*
X6093460Y3279020D02*
Y3543300D01*
X6245860D01*
Y3279020D02*
Y3543300D01*
X6169660Y3276480D02*
X6245860D01*
X6301740Y3264020D02*
X6372860D01*
X6301740Y3263900D02*
Y3558540D01*
X6441440D01*
Y3263900D02*
Y3558540D01*
X6372860Y3264020D02*
X6441440D01*
X6504940D02*
X6576060D01*
X6504940Y3263900D02*
Y3558540D01*
X6644640D01*
Y3263900D02*
Y3558540D01*
X6576060Y3264020D02*
X6644640D01*
X6779260D02*
X6847840D01*
Y3263900D02*
Y3558540D01*
X6708140D02*
X6847840D01*
X6708140Y3263900D02*
Y3558540D01*
Y3264020D02*
X6779260D01*
X6982460D02*
X7051040D01*
Y3263900D02*
Y3558540D01*
X6911340D02*
X7051040D01*
X6911340Y3263900D02*
Y3558540D01*
Y3264020D02*
X6982460D01*
X2958980Y3586480D02*
Y3662680D01*
X2961520D02*
X3225800D01*
Y3510280D02*
Y3662680D01*
X2961520Y3510280D02*
X3225800D01*
X2958980D02*
Y3586480D01*
X3225920Y3327400D02*
Y3403600D01*
X2959100Y3327400D02*
X3223380D01*
X2959100D02*
Y3479800D01*
X3223380D01*
X3225920Y3403600D02*
Y3479800D01*
Y3756660D02*
Y3832860D01*
X2959100Y3756660D02*
X3223380D01*
X2959100D02*
Y3909060D01*
X3223380D01*
X3225920Y3832860D02*
Y3909060D01*
X4140200Y3675260D02*
X4216400D01*
X4140200Y3677800D02*
Y3942080D01*
X4292600D01*
Y3677800D02*
Y3942080D01*
X4216400Y3675260D02*
X4292600D01*
X4419600Y3944740D02*
X4495800D01*
Y3677920D02*
Y3942200D01*
X4343400Y3677920D02*
X4495800D01*
X4343400D02*
Y3942200D01*
Y3944740D02*
X4419600D01*
D31*
X7447700Y3295220D02*
X7458280Y3305800D01*
X7479440D01*
X7490020Y3295220D01*
Y3252900D01*
X7479440Y3242320D01*
X7458280D01*
X7447700Y3252900D01*
X7426540Y3305800D02*
X7384220D01*
Y3295220D01*
X7426540Y3252900D01*
Y3242320D01*
X6143820Y4207500D02*
Y4154600D01*
X6133240Y4144020D01*
X6112080D01*
X6101500Y4154600D01*
Y4207500D01*
X6038020Y4144020D02*
X6080340D01*
X6038020Y4186340D01*
Y4196920D01*
X6048600Y4207500D01*
X6069760D01*
X6080340Y4196920D01*
X6140460Y3117020D02*
X6203940D01*
Y3148760D01*
X6193360Y3159340D01*
X6172200D01*
X6161620Y3148760D01*
Y3117020D01*
Y3138180D02*
X6140460Y3159340D01*
X6151040Y3180500D02*
X6140460Y3191079D01*
Y3212239D01*
X6151040Y3222819D01*
X6193360D01*
X6203940Y3212239D01*
Y3191079D01*
X6193360Y3180500D01*
X6182780D01*
X6172200Y3191079D01*
Y3222819D01*
X2887540Y3557280D02*
Y3620760D01*
X2855800D01*
X2845220Y3610180D01*
Y3589020D01*
X2855800Y3578440D01*
X2887540D01*
X2866380D02*
X2845220Y3557280D01*
X2824060Y3610180D02*
X2813480Y3620760D01*
X2792320D01*
X2781740Y3610180D01*
Y3599600D01*
X2792320Y3589020D01*
X2781740Y3578440D01*
Y3567860D01*
X2792320Y3557280D01*
X2813480D01*
X2824060Y3567860D01*
Y3578440D01*
X2813480Y3589020D01*
X2824060Y3599600D01*
Y3610180D01*
X2813480Y3589020D02*
X2792320D01*
X2882460Y3374400D02*
Y3437880D01*
X2850720D01*
X2840140Y3427300D01*
Y3406140D01*
X2850720Y3395560D01*
X2882460D01*
X2861300D02*
X2840140Y3374400D01*
X2818980Y3437880D02*
X2776660D01*
Y3427300D01*
X2818980Y3384980D01*
Y3374400D01*
X2882460Y3803660D02*
Y3867140D01*
X2850720D01*
X2840140Y3856560D01*
Y3835400D01*
X2850720Y3824820D01*
X2882460D01*
X2861300D02*
X2840140Y3803660D01*
X2776660Y3867140D02*
X2797820Y3856560D01*
X2818980Y3835400D01*
Y3814240D01*
X2808400Y3803660D01*
X2787240D01*
X2776660Y3814240D01*
Y3824820D01*
X2787240Y3835400D01*
X2818980D01*
X4387860Y4013760D02*
X4451340D01*
Y4045500D01*
X4440760Y4056080D01*
X4419600D01*
X4409020Y4045500D01*
Y4013760D01*
Y4034920D02*
X4387860Y4056080D01*
Y4108980D02*
X4451340D01*
X4419600Y4077240D01*
Y4119559D01*
X4184660Y4013640D02*
X4248140D01*
Y4045380D01*
X4237560Y4055960D01*
X4216400D01*
X4205820Y4045380D01*
Y4013640D01*
Y4034800D02*
X4184660Y4055960D01*
X4237560Y4077120D02*
X4248140Y4087699D01*
Y4108859D01*
X4237560Y4119439D01*
X4226980D01*
X4216400Y4108859D01*
Y4098279D01*
Y4108859D01*
X4205820Y4119439D01*
X4195240D01*
X4184660Y4108859D01*
Y4087699D01*
X4195240Y4077120D01*
X4796800Y4143180D02*
X4860280D01*
Y4174920D01*
X4849700Y4185500D01*
X4828540D01*
X4817960Y4174920D01*
Y4143180D01*
Y4164340D02*
X4796800Y4185500D01*
Y4248979D02*
Y4206660D01*
X4839120Y4248979D01*
X4849700D01*
X4860280Y4238399D01*
Y4217239D01*
X4849700Y4206660D01*
X7011240Y3104950D02*
X7021820Y3094370D01*
Y3073210D01*
X7011240Y3062630D01*
X6968920D01*
X6958340Y3073210D01*
Y3094370D01*
X6968920Y3104950D01*
X6958340Y3126110D02*
Y3147270D01*
Y3136690D01*
X7021820D01*
X7011240Y3126110D01*
X7021820Y3221329D02*
Y3179009D01*
X6990080D01*
X7000660Y3200169D01*
Y3210749D01*
X6990080Y3221329D01*
X6968920D01*
X6958340Y3210749D01*
Y3189589D01*
X6968920Y3179009D01*
X6594680Y3104950D02*
X6605260Y3094370D01*
Y3073210D01*
X6594680Y3062630D01*
X6552360D01*
X6541780Y3073210D01*
Y3094370D01*
X6552360Y3104950D01*
X6541780Y3126110D02*
Y3147270D01*
Y3136690D01*
X6605260D01*
X6594680Y3126110D01*
X6541780Y3210749D02*
X6605260D01*
X6573520Y3179009D01*
Y3221329D01*
X6800420Y3104950D02*
X6811000Y3094370D01*
Y3073210D01*
X6800420Y3062630D01*
X6758100D01*
X6747520Y3073210D01*
Y3094370D01*
X6758100Y3104950D01*
X6747520Y3126110D02*
Y3147270D01*
Y3136690D01*
X6811000D01*
X6800420Y3126110D01*
Y3179009D02*
X6811000Y3189589D01*
Y3210749D01*
X6800420Y3221329D01*
X6789840D01*
X6779260Y3210749D01*
Y3200169D01*
Y3210749D01*
X6768680Y3221329D01*
X6758100D01*
X6747520Y3210749D01*
Y3189589D01*
X6758100Y3179009D01*
X6388940Y3104950D02*
X6399520Y3094370D01*
Y3073210D01*
X6388940Y3062630D01*
X6346620D01*
X6336040Y3073210D01*
Y3094370D01*
X6346620Y3104950D01*
X6336040Y3126110D02*
Y3147270D01*
Y3136690D01*
X6399520D01*
X6388940Y3126110D01*
X6336040Y3221329D02*
Y3179009D01*
X6378360Y3221329D01*
X6388940D01*
X6399520Y3210749D01*
Y3189589D01*
X6388940Y3179009D01*
X5959680Y3125690D02*
X5970260Y3115111D01*
Y3093951D01*
X5959680Y3083371D01*
X5917360D01*
X5906780Y3093951D01*
Y3115111D01*
X5917360Y3125690D01*
X5906780Y3146850D02*
Y3168010D01*
Y3157430D01*
X5970260D01*
X5959680Y3146850D01*
X5906780Y3199750D02*
Y3220909D01*
Y3210330D01*
X5970260D01*
X5959680Y3199750D01*
X5759020Y3102410D02*
X5769600Y3091830D01*
Y3070670D01*
X5759020Y3060090D01*
X5716700D01*
X5706120Y3070670D01*
Y3091830D01*
X5716700Y3102410D01*
X5706120Y3123570D02*
Y3144730D01*
Y3134150D01*
X5769600D01*
X5759020Y3123570D01*
Y3176469D02*
X5769600Y3187049D01*
Y3208209D01*
X5759020Y3218789D01*
X5716700D01*
X5706120Y3208209D01*
Y3187049D01*
X5716700Y3176469D01*
X5759020D01*
X5545660Y3156800D02*
X5556240Y3146220D01*
Y3125060D01*
X5545660Y3114480D01*
X5503340D01*
X5492760Y3125060D01*
Y3146220D01*
X5503340Y3156800D01*
Y3177960D02*
X5492760Y3188539D01*
Y3209699D01*
X5503340Y3220279D01*
X5545660D01*
X5556240Y3209699D01*
Y3188539D01*
X5545660Y3177960D01*
X5535080D01*
X5524500Y3188539D01*
Y3220279D01*
X5342460Y3156800D02*
X5353040Y3146220D01*
Y3125060D01*
X5342460Y3114480D01*
X5300140D01*
X5289560Y3125060D01*
Y3146220D01*
X5300140Y3156800D01*
X5342460Y3177960D02*
X5353040Y3188539D01*
Y3209699D01*
X5342460Y3220279D01*
X5331880D01*
X5321300Y3209699D01*
X5310720Y3220279D01*
X5300140D01*
X5289560Y3209699D01*
Y3188539D01*
X5300140Y3177960D01*
X5310720D01*
X5321300Y3188539D01*
X5331880Y3177960D01*
X5342460D01*
X5321300Y3188539D02*
Y3209699D01*
X6721680Y4198200D02*
X6732260Y4187620D01*
Y4166460D01*
X6721680Y4155880D01*
X6679360D01*
X6668780Y4166460D01*
Y4187620D01*
X6679360Y4198200D01*
X6732260Y4261679D02*
X6721680Y4240519D01*
X6700520Y4219360D01*
X6679360D01*
X6668780Y4229939D01*
Y4251099D01*
X6679360Y4261679D01*
X6689940D01*
X6700520Y4251099D01*
Y4219360D01*
X6488000Y4198200D02*
X6498580Y4187620D01*
Y4166460D01*
X6488000Y4155880D01*
X6445680D01*
X6435100Y4166460D01*
Y4187620D01*
X6445680Y4198200D01*
X6498580Y4261679D02*
Y4219360D01*
X6466840D01*
X6477420Y4240519D01*
Y4251099D01*
X6466840Y4261679D01*
X6445680D01*
X6435100Y4251099D01*
Y4229939D01*
X6445680Y4219360D01*
X5301820Y4195660D02*
X5312400Y4185080D01*
Y4163920D01*
X5301820Y4153340D01*
X5259500D01*
X5248920Y4163920D01*
Y4185080D01*
X5259500Y4195660D01*
X5248920Y4248559D02*
X5312400D01*
X5280660Y4216820D01*
Y4259139D01*
X5510100Y4195660D02*
X5520680Y4185080D01*
Y4163920D01*
X5510100Y4153340D01*
X5467780D01*
X5457200Y4163920D01*
Y4185080D01*
X5467780Y4195660D01*
X5510100Y4216820D02*
X5520680Y4227399D01*
Y4248559D01*
X5510100Y4259139D01*
X5499520D01*
X5488940Y4248559D01*
Y4237979D01*
Y4248559D01*
X5478360Y4259139D01*
X5467780D01*
X5457200Y4248559D01*
Y4227399D01*
X5467780Y4216820D01*
X5736160Y4195660D02*
X5746740Y4185080D01*
Y4163920D01*
X5736160Y4153340D01*
X5693840D01*
X5683260Y4163920D01*
Y4185080D01*
X5693840Y4195660D01*
X5683260Y4259139D02*
Y4216820D01*
X5725580Y4259139D01*
X5736160D01*
X5746740Y4248559D01*
Y4227399D01*
X5736160Y4216820D01*
X5075760Y4213860D02*
X5086340Y4203280D01*
Y4182120D01*
X5075760Y4171541D01*
X5033440D01*
X5022860Y4182120D01*
Y4203280D01*
X5033440Y4213860D01*
X5022860Y4235020D02*
Y4256180D01*
Y4245600D01*
X5086340D01*
X5075760Y4235020D01*
%TF.MD5,0a2600556d96e5077121b746420d2c42*%
M02*
