%TF.GenerationSoftware,Altium Limited,Altium Designer,21.4.1 (30)*%
G04 Layer_Color=255*
%FSLAX45Y45*%
%MOMM*%
%TF.SameCoordinates,07A852E0-A263-4F49-A737-320A16F82769*%
%TF.FilePolarity,Positive*%
%TF.FileFunction,Pads,Bot*%
%TF.Part,Single*%
G01*
G75*
%TA.AperFunction,SMDPad,CuDef*%
%ADD15R,0.90000X0.60000*%
%ADD17R,0.80000X0.80000*%
%TA.AperFunction,ComponentPad*%
%ADD22C,1.70000*%
%ADD23R,1.70000X1.70000*%
%ADD24R,1.70000X1.70000*%
%TA.AperFunction,SMDPad,CuDef*%
%ADD26R,0.80000X0.80000*%
%ADD27R,1.20000X0.56000*%
%ADD28R,0.60000X0.90000*%
%ADD29R,1.30000X0.90000*%
D15*
X4216400Y3885000D02*
D03*
X4419600Y3885000D02*
D03*
X4820920Y3859460D02*
D03*
X4216400Y3735000D02*
D03*
X4419600Y3735000D02*
D03*
X4820920Y4009460D02*
D03*
X6169660Y3336220D02*
D03*
Y3486220D02*
D03*
D17*
X5278120Y4009460D02*
D03*
Y3859460D02*
D03*
X5481320Y3859460D02*
D03*
X6982460Y3336220D02*
D03*
X6779260D02*
D03*
X6576060D02*
D03*
X6372860D02*
D03*
X5941060D02*
D03*
X5737860D02*
D03*
X5534660D02*
D03*
X5331460D02*
D03*
X6700520Y4009460D02*
D03*
X5481320D02*
D03*
X5941060Y3486220D02*
D03*
X5737860D02*
D03*
X5534660D02*
D03*
X5331460D02*
D03*
X6700520Y3859460D02*
D03*
X6372860Y3486220D02*
D03*
X6576060D02*
D03*
X6779260D02*
D03*
X6982460D02*
D03*
D22*
X3429000Y4064000D02*
D03*
X3937000Y3810000D02*
D03*
Y4064000D02*
D03*
X7366000Y4508500D02*
D03*
X7112000D02*
D03*
X6858000D02*
D03*
X6604000D02*
D03*
X6350000D02*
D03*
X6096000D02*
D03*
X5842000D02*
D03*
X5588000D02*
D03*
X5334000D02*
D03*
X5080000D02*
D03*
X4826000D02*
D03*
X4572000D02*
D03*
X4318000D02*
D03*
X4064000D02*
D03*
X3825240Y4503420D02*
D03*
X3556000Y4508500D02*
D03*
X3302000D02*
D03*
X3048000D02*
D03*
X2794000D02*
D03*
X7366000Y2857500D02*
D03*
X7112000D02*
D03*
X6858000D02*
D03*
X6604000D02*
D03*
X6350000D02*
D03*
X6096000D02*
D03*
X5842000D02*
D03*
X5588000D02*
D03*
X5334000D02*
D03*
X5080000D02*
D03*
X4826000D02*
D03*
X4572000D02*
D03*
X4318000D02*
D03*
X4064000D02*
D03*
X3825240Y2852420D02*
D03*
X3556000Y2857500D02*
D03*
X3302000D02*
D03*
X3048000D02*
D03*
X2794000D02*
D03*
X7620000Y3810000D02*
D03*
Y3556000D02*
D03*
Y3302000D02*
D03*
X3683000Y3810000D02*
D03*
Y4064000D02*
D03*
D23*
X7620000Y4508500D02*
D03*
Y2857500D02*
D03*
X3429000Y3810000D02*
D03*
D24*
X7620000Y4064000D02*
D03*
D26*
X7415600Y3124200D02*
D03*
X7265600D02*
D03*
D27*
X5940920Y3934460D02*
D03*
Y4038460D02*
D03*
X6240920Y3830460D02*
D03*
Y4038460D02*
D03*
X5940920Y3830460D02*
D03*
D28*
X3016180Y3832860D02*
D03*
X3018720Y3586480D02*
D03*
X3166180Y3832860D02*
D03*
Y3403600D02*
D03*
X3016180D02*
D03*
X3168720Y3586480D02*
D03*
D29*
X5709920Y4029460D02*
D03*
Y3839460D02*
D03*
X6471920Y4029460D02*
D03*
Y3839460D02*
D03*
X5049520Y4029460D02*
D03*
Y3839460D02*
D03*
%TF.MD5,c13caffcd8b3b42dd65190c389aff750*%
M02*
