M48
;Layer_Color=9474304
;FILE_FORMAT=4:4
METRIC,LZ
;TYPE=PLATED
T1F00S00C0.3000
T2F00S00C1.1000
%
T01
X002812Y00378734
X0030861Y00376174
X00309306Y0036798
X00376702Y00363728
X00383186
X00403122
X00409702
X00466344Y0037338
X0049042Y00376866
X00493452Y003935
X00515597Y00357778
X00531435Y00366121
X00562492Y00357778
X0059436Y00361679
X00616966Y00359156
X00612648Y0038735
X0069207Y00385946
X00668528Y00341376
X00755553Y00312674
X00763382
X00501396Y00314706
X004931
X00467101Y00310593
X00493452Y00407106
X00558253Y00406094
X006858Y00434652
X00720984Y0041124
T02
X002794Y0028575
X003048
X003302
X003556
X00382524Y00285242
X003937Y00381
X003683
X003429
X004064Y0028575
X004318
X004572
X004826
X00508
X005334
X005588
X005842
X006096
X00635
X006604
X006858
X007112
X007366
X00762
Y003302
Y003556
Y00381
Y004064
Y0045085
X007366
X007112
X006858
X006604
X00635
X006096
X005842
X005588
X005334
X00508
X004826
X004572
X004318
X004064
X00382524Y00450342
X003556Y0045085
X003302
X003048
X002794
X003429Y004064
X003683
X003937
M30
