%TF.GenerationSoftware,Altium Limited,Altium Designer,21.4.1 (30)*%
G04 Layer_Color=128*
%FSLAX45Y45*%
%MOMM*%
%TF.SameCoordinates,7FD8979F-C22B-4491-80EA-6B84785AAA14*%
%TF.FilePolarity,Positive*%
%TF.FileFunction,Paste,Bot*%
%TF.Part,Single*%
G01*
G75*
%TA.AperFunction,SMDPad,CuDef*%
%ADD41R,0.90000X0.90000*%
%ADD42R,1.30000X0.66000*%
%ADD43R,0.90000X0.90000*%
%ADD44R,1.00000X0.70000*%
%ADD45R,0.70000X1.00000*%
%ADD46R,1.40000X1.00000*%
D41*
X4875600Y584200D02*
D03*
X4725600D02*
D03*
D42*
X3400920Y1394460D02*
D03*
Y1498460D02*
D03*
X3700920Y1290460D02*
D03*
Y1498460D02*
D03*
X3400920Y1290460D02*
D03*
D43*
X2738120Y1469460D02*
D03*
Y1319460D02*
D03*
X2941320Y1319460D02*
D03*
X4442460Y796220D02*
D03*
X4239260D02*
D03*
X4036060D02*
D03*
X3832860D02*
D03*
X3401060D02*
D03*
X3197860D02*
D03*
X2994660D02*
D03*
X2791460D02*
D03*
X4160520Y1469460D02*
D03*
X2941320D02*
D03*
X3401060Y946220D02*
D03*
X3197860D02*
D03*
X2994660D02*
D03*
X2791460D02*
D03*
X4160520Y1319460D02*
D03*
X3832860Y946220D02*
D03*
X4036060D02*
D03*
X4239260D02*
D03*
X4442460D02*
D03*
D44*
X1676400Y1345000D02*
D03*
X1879600Y1345000D02*
D03*
X2280920Y1319460D02*
D03*
X1676400Y1195000D02*
D03*
X1879600Y1195000D02*
D03*
X2280920Y1469460D02*
D03*
X3629660Y796220D02*
D03*
Y946220D02*
D03*
D45*
X476180Y1292860D02*
D03*
X478720Y1046480D02*
D03*
X626180Y1292860D02*
D03*
Y863600D02*
D03*
X476180D02*
D03*
X628720Y1046480D02*
D03*
D46*
X3169920Y1489460D02*
D03*
Y1299460D02*
D03*
X3931920Y1489460D02*
D03*
Y1299460D02*
D03*
X2509520Y1489460D02*
D03*
Y1299460D02*
D03*
%TF.MD5,3dc1995521cd8d2646ea02cef185ecf6*%
M02*
