%TF.GenerationSoftware,Altium Limited,Altium Designer,21.4.1 (30)*%
G04 Layer_Color=8388736*
%FSLAX45Y45*%
%MOMM*%
%TF.SameCoordinates,7FD8979F-C22B-4491-80EA-6B84785AAA14*%
%TF.FilePolarity,Negative*%
%TF.FileFunction,Soldermask,Top*%
%TF.Part,Single*%
G01*
G75*
%TA.AperFunction,SMDPad,CuDef*%
%ADD34R,1.00000X1.00000*%
%ADD35R,1.10000X0.80000*%
%TA.AperFunction,ComponentPad*%
%ADD38C,1.90000*%
%ADD39R,1.90000X1.90000*%
%ADD40R,1.90000X1.90000*%
%TA.AperFunction,ConnectorPad*%
%ADD53R,1.45000X0.50000*%
%TA.AperFunction,SMDPad,CuDef*%
G04:AMPARAMS|DCode=59|XSize=1.675mm|YSize=0.5mm|CornerRadius=0mm|HoleSize=0mm|Usage=FLASHONLY|Rotation=225.000|XOffset=0mm|YOffset=0mm|HoleType=Round|Shape=Rectangle|*
%AMROTATEDRECTD59*
4,1,4,0.41543,0.76898,0.76898,0.41543,-0.41543,-0.76898,-0.76898,-0.41543,0.41543,0.76898,0.0*
%
%ADD59ROTATEDRECTD59*%

G04:AMPARAMS|DCode=60|XSize=1.675mm|YSize=0.5mm|CornerRadius=0mm|HoleSize=0mm|Usage=FLASHONLY|Rotation=315.000|XOffset=0mm|YOffset=0mm|HoleType=Round|Shape=Rectangle|*
%AMROTATEDRECTD60*
4,1,4,-0.76898,0.41543,-0.41543,0.76898,0.76898,-0.41543,0.41543,-0.76898,-0.76898,0.41543,0.0*
%
%ADD60ROTATEDRECTD60*%

%ADD61R,2.10000X2.10000*%
%TA.AperFunction,ConnectorPad*%
%ADD62R,1.80000X2.30000*%
%TA.AperFunction,SMDPad,CuDef*%
%ADD63R,1.70000X1.60000*%
%ADD64R,1.00000X1.70000*%
%ADD65R,5.70000X2.20000*%
D34*
X4013200Y1573600D02*
D03*
X4267200Y1572400D02*
D03*
Y1422400D02*
D03*
X4013200Y1423600D02*
D03*
D35*
X4521200Y1423600D02*
D03*
X3759200Y1573600D02*
D03*
X4521200D02*
D03*
X3759200Y1423600D02*
D03*
D38*
X889000Y1524000D02*
D03*
X1397000Y1270000D02*
D03*
Y1524000D02*
D03*
X4826000Y1968500D02*
D03*
X4572000D02*
D03*
X4318000D02*
D03*
X4064000D02*
D03*
X3810000D02*
D03*
X3556000D02*
D03*
X3302000D02*
D03*
X3048000D02*
D03*
X2794000D02*
D03*
X2540000D02*
D03*
X2286000D02*
D03*
X2032000D02*
D03*
X1778000D02*
D03*
X1524000D02*
D03*
X1285240Y1963420D02*
D03*
X1016000Y1968500D02*
D03*
X762000D02*
D03*
X508000D02*
D03*
X254000D02*
D03*
X4826000Y317500D02*
D03*
X4572000D02*
D03*
X4318000D02*
D03*
X4064000D02*
D03*
X3810000D02*
D03*
X3556000D02*
D03*
X3302000D02*
D03*
X3048000D02*
D03*
X2794000D02*
D03*
X2540000D02*
D03*
X2286000D02*
D03*
X2032000D02*
D03*
X1778000D02*
D03*
X1524000D02*
D03*
X1285240Y312420D02*
D03*
X1016000Y317500D02*
D03*
X762000D02*
D03*
X508000D02*
D03*
X254000D02*
D03*
X5080000Y1270000D02*
D03*
Y1016000D02*
D03*
Y762000D02*
D03*
X1143000Y1270000D02*
D03*
Y1524000D02*
D03*
D39*
X5080000Y1968500D02*
D03*
Y317500D02*
D03*
X889000Y1270000D02*
D03*
D40*
X5080000Y1524000D02*
D03*
D53*
X382000Y1266000D02*
D03*
Y1071000D02*
D03*
Y1006000D02*
D03*
Y1201000D02*
D03*
Y1136000D02*
D03*
D59*
X2907126Y1248217D02*
D03*
X2871771Y1283573D02*
D03*
X2836415Y1318928D02*
D03*
X2801060Y1354284D02*
D03*
X2765705Y1389639D02*
D03*
X2730349Y1424994D02*
D03*
X2694994Y1460349D02*
D03*
X2659639Y1495705D02*
D03*
X2624284Y1531060D02*
D03*
X2588928Y1566415D02*
D03*
X2553573Y1601771D02*
D03*
X2518217Y1637126D02*
D03*
X1918874Y1037783D02*
D03*
X1954229Y1002427D02*
D03*
X1989585Y967072D02*
D03*
X2024940Y931716D02*
D03*
X2060295Y896361D02*
D03*
X2095651Y861006D02*
D03*
X2131006Y825651D02*
D03*
X2166361Y790295D02*
D03*
X2201716Y754940D02*
D03*
X2237072Y719585D02*
D03*
X2272427Y684229D02*
D03*
X2307783Y648874D02*
D03*
D60*
Y1637126D02*
D03*
X2272427Y1601771D02*
D03*
X2237072Y1566415D02*
D03*
X2201716Y1531060D02*
D03*
X2166361Y1495705D02*
D03*
X2131006Y1460349D02*
D03*
X2095651Y1424994D02*
D03*
X2060295Y1389639D02*
D03*
X2024940Y1354284D02*
D03*
X1989585Y1318928D02*
D03*
X1954229Y1283573D02*
D03*
X1918874Y1248217D02*
D03*
X2518217Y648874D02*
D03*
X2553573Y684229D02*
D03*
X2588928Y719585D02*
D03*
X2624284Y754940D02*
D03*
X2659639Y790295D02*
D03*
X2694994Y825651D02*
D03*
X2730349Y861006D02*
D03*
X2765705Y896361D02*
D03*
X2801060Y931716D02*
D03*
X2836415Y967072D02*
D03*
X2871771Y1002427D02*
D03*
X2907126Y1037783D02*
D03*
D61*
X127000Y756000D02*
D03*
Y1516000D02*
D03*
Y1016000D02*
D03*
Y1256000D02*
D03*
D62*
X369500Y826000D02*
D03*
Y1446000D02*
D03*
D63*
X1533000Y848360D02*
D03*
X753000D02*
D03*
D64*
X3584080Y1447800D02*
D03*
X3434080D02*
D03*
D65*
X4475500Y889000D02*
D03*
X3525500D02*
D03*
%TF.MD5,e749afa9ada0e0b92352948633c69f3f*%
M02*
