%TF.GenerationSoftware,Altium Limited,Altium Designer,21.4.1 (30)*%
G04 Layer_Color=16711935*
%FSLAX45Y45*%
%MOMM*%
%TF.SameCoordinates,7FD8979F-C22B-4491-80EA-6B84785AAA14*%
%TF.FilePolarity,Positive*%
%TF.FileFunction,Other,Mechanical_1*%
%TF.Part,Single*%
G01*
G75*
%TA.AperFunction,NonConductor*%
%ADD30C,0.20000*%
%ADD48C,0.25000*%
%ADD49C,0.10000*%
%ADD66C,0.25400*%
G36*
X865995Y1143725D02*
Y1143576D01*
Y1143131D01*
Y1142536D01*
Y1141645D01*
X865846Y1140605D01*
Y1139416D01*
X865698Y1136741D01*
X865252Y1133621D01*
X864806Y1130500D01*
X864063Y1127380D01*
X863023Y1124705D01*
X862875Y1124408D01*
X862429Y1123665D01*
X861686Y1122477D01*
X860794Y1120991D01*
X859457Y1119208D01*
X857823Y1117573D01*
X855742Y1115939D01*
X853513Y1114453D01*
X853216Y1114304D01*
X852325Y1113858D01*
X850987Y1113413D01*
X849204Y1112818D01*
X846975Y1112075D01*
X844449Y1111629D01*
X841478Y1111184D01*
X838357Y1111035D01*
X837169D01*
X836277Y1111184D01*
X835237Y1111332D01*
X833900Y1111481D01*
X831076Y1111927D01*
X827956Y1112818D01*
X824687Y1114156D01*
X823052Y1114898D01*
X821567Y1115939D01*
X820081Y1116979D01*
X818743Y1118316D01*
Y1118465D01*
X818446Y1118613D01*
X818149Y1119059D01*
X817703Y1119653D01*
X817109Y1120545D01*
X816663Y1121436D01*
X815920Y1122625D01*
X815326Y1123814D01*
X814731Y1125300D01*
X814137Y1126934D01*
X813543Y1128717D01*
X813097Y1130798D01*
X812651Y1132878D01*
X812354Y1135255D01*
X812205Y1137633D01*
Y1140307D01*
X823795Y1141942D01*
Y1141793D01*
Y1141496D01*
Y1140902D01*
X823944Y1140159D01*
Y1139267D01*
X824093Y1138227D01*
X824538Y1135850D01*
X824984Y1133175D01*
X825727Y1130649D01*
X826767Y1128420D01*
X827362Y1127380D01*
X827956Y1126488D01*
X828105Y1126340D01*
X828699Y1125894D01*
X829442Y1125151D01*
X830631Y1124557D01*
X832116Y1123814D01*
X833900Y1123071D01*
X835980Y1122625D01*
X838357Y1122477D01*
X839249D01*
X840140Y1122625D01*
X841180Y1122774D01*
X842518Y1123071D01*
X844004Y1123368D01*
X845341Y1123962D01*
X846678Y1124705D01*
X846827Y1124854D01*
X847273Y1125151D01*
X847867Y1125597D01*
X848610Y1126340D01*
X849501Y1127083D01*
X850244Y1128123D01*
X850987Y1129312D01*
X851582Y1130649D01*
Y1130798D01*
X851879Y1131392D01*
X852028Y1132283D01*
X852325Y1133621D01*
X852622Y1135404D01*
X852770Y1137484D01*
X853068Y1140010D01*
Y1142982D01*
Y1210293D01*
X865995D01*
Y1143725D01*
D02*
G37*
G36*
X1018300Y1112670D02*
X1006264D01*
Y1189045D01*
X1006115Y1188896D01*
X1005521Y1188302D01*
X1004481Y1187559D01*
X1003144Y1186519D01*
X1001509Y1185182D01*
X999577Y1183844D01*
X997349Y1182210D01*
X994822Y1180724D01*
X994674D01*
X994525Y1180575D01*
X993634Y1179981D01*
X992296Y1179238D01*
X990662Y1178346D01*
X988730Y1177306D01*
X986650Y1176415D01*
X984421Y1175375D01*
X982341Y1174483D01*
Y1186222D01*
X982490D01*
X982787Y1186370D01*
X983381Y1186667D01*
X983975Y1187113D01*
X984867Y1187559D01*
X985907Y1188005D01*
X988285Y1189342D01*
X990959Y1190977D01*
X993931Y1192908D01*
X996903Y1195137D01*
X999726Y1197514D01*
X999875Y1197663D01*
X1000023Y1197812D01*
X1000915Y1198703D01*
X1002252Y1200041D01*
X1003886Y1201675D01*
X1005670Y1203755D01*
X1007453Y1205984D01*
X1009087Y1208362D01*
X1010424Y1210739D01*
X1018300D01*
Y1112670D01*
D02*
G37*
G36*
X929294Y1210145D02*
X931672Y1209996D01*
X934198Y1209847D01*
X936575Y1209550D01*
X938655Y1209253D01*
X938953D01*
X939844Y1208956D01*
X941182Y1208659D01*
X942816Y1208213D01*
X944748Y1207619D01*
X946679Y1206876D01*
X948760Y1205836D01*
X950691Y1204647D01*
X950840Y1204498D01*
X951583Y1204052D01*
X952474Y1203310D01*
X953514Y1202269D01*
X954703Y1200932D01*
X956041Y1199298D01*
X957378Y1197514D01*
X958567Y1195286D01*
X958715Y1194988D01*
X959012Y1194246D01*
X959458Y1193057D01*
X960052Y1191422D01*
X960647Y1189491D01*
X961093Y1187262D01*
X961390Y1184736D01*
X961538Y1182061D01*
Y1181913D01*
Y1181467D01*
Y1180872D01*
X961390Y1179981D01*
X961241Y1178941D01*
X961093Y1177603D01*
X960944Y1176266D01*
X960498Y1174780D01*
X959607Y1171363D01*
X958121Y1167945D01*
X957229Y1166162D01*
X956189Y1164379D01*
X955000Y1162596D01*
X953514Y1160961D01*
X953366Y1160813D01*
X953069Y1160664D01*
X952623Y1160218D01*
X952029Y1159624D01*
X950988Y1159030D01*
X949948Y1158287D01*
X948611Y1157544D01*
X946977Y1156801D01*
X945193Y1155909D01*
X943113Y1155166D01*
X940736Y1154423D01*
X938210Y1153829D01*
X935238Y1153235D01*
X932118Y1152789D01*
X928700Y1152640D01*
X924985Y1152492D01*
X900022D01*
Y1112670D01*
X887095D01*
Y1210293D01*
X927065D01*
X929294Y1210145D01*
D02*
G37*
G36*
X4557267Y1095189D02*
X4594860Y1038874D01*
X4579258D01*
X4559941Y1068443D01*
Y1068592D01*
X4559644Y1068740D01*
X4559347Y1069186D01*
X4559050Y1069780D01*
X4558010Y1071415D01*
X4556672Y1073495D01*
X4555186Y1076021D01*
X4553552Y1078844D01*
X4551769Y1081816D01*
X4549986Y1084937D01*
Y1084788D01*
X4549837Y1084639D01*
X4549540Y1084194D01*
X4549243Y1083599D01*
X4548351Y1081965D01*
X4547014Y1079885D01*
X4545528Y1077359D01*
X4543596Y1074387D01*
X4541516Y1071118D01*
X4539287Y1067700D01*
X4520416Y1038874D01*
X4505409D01*
X4544339Y1095189D01*
Y1136497D01*
X4557267D01*
Y1095189D01*
D02*
G37*
G36*
X4465438Y1060122D02*
X4465587Y1060271D01*
X4466181Y1060865D01*
X4467221Y1061608D01*
X4468558Y1062648D01*
X4470193Y1063985D01*
X4472125Y1065323D01*
X4474354Y1066957D01*
X4476880Y1068443D01*
X4477028D01*
X4477177Y1068592D01*
X4478068Y1069186D01*
X4479406Y1069929D01*
X4481040Y1070821D01*
X4482972Y1071861D01*
X4485052Y1072752D01*
X4487281Y1073792D01*
X4489361Y1074684D01*
Y1062945D01*
X4489213D01*
X4488915Y1062797D01*
X4488321Y1062500D01*
X4487727Y1062054D01*
X4486835Y1061608D01*
X4485795Y1061162D01*
X4483418Y1059825D01*
X4480743Y1058190D01*
X4477771Y1056259D01*
X4474799Y1054030D01*
X4471976Y1051652D01*
X4471827Y1051504D01*
X4471679Y1051355D01*
X4470787Y1050464D01*
X4469450Y1049126D01*
X4467816Y1047492D01*
X4466032Y1045412D01*
X4464249Y1043183D01*
X4462615Y1040805D01*
X4461278Y1038428D01*
X4453402D01*
Y1136497D01*
X4465438D01*
Y1060122D01*
D02*
G37*
%LPC*%
G36*
X927808Y1198852D02*
X900022D01*
Y1163933D01*
X926323D01*
X927214Y1164082D01*
X928254D01*
X929294Y1164230D01*
X931969Y1164528D01*
X934941Y1165122D01*
X937913Y1165865D01*
X940587Y1167054D01*
X941776Y1167796D01*
X942816Y1168539D01*
X943113Y1168688D01*
X943708Y1169431D01*
X944450Y1170471D01*
X945491Y1171957D01*
X946531Y1173740D01*
X947274Y1175969D01*
X947868Y1178644D01*
X948165Y1181615D01*
Y1181913D01*
Y1182655D01*
X948017Y1183844D01*
X947719Y1185330D01*
X947422Y1186965D01*
X946828Y1188748D01*
X946085Y1190531D01*
X945045Y1192165D01*
X944896Y1192314D01*
X944450Y1192908D01*
X943856Y1193651D01*
X942816Y1194543D01*
X941627Y1195434D01*
X940290Y1196474D01*
X938655Y1197217D01*
X936872Y1197960D01*
X936724D01*
X936278Y1198109D01*
X935386Y1198257D01*
X934198Y1198406D01*
X932563Y1198555D01*
X930483Y1198703D01*
X927808Y1198852D01*
D02*
G37*
%LPD*%
D30*
X4945380Y632460D02*
Y1648460D01*
X5204460D01*
Y632460D02*
Y1648460D01*
X4945380Y632460D02*
X5204460D01*
X5181600Y444500D02*
X5207000D01*
Y190500D02*
Y444500D01*
X127000Y190500D02*
Y444500D01*
X5181600D01*
X127000Y190500D02*
X5207000D01*
X127000Y1841500D02*
X5207000D01*
X127000Y2095500D02*
X5181600D01*
X127000Y1841500D02*
Y2095500D01*
X5207000Y1841500D02*
Y2095500D01*
X5181600D02*
X5207000D01*
X762000Y1333500D02*
Y1651000D01*
Y1143000D02*
Y1460500D01*
Y1143000D02*
X1524000D01*
Y1651000D01*
X762000D02*
X1524000D01*
X-140000Y1531000D02*
X427000D01*
X-140000Y741000D02*
Y1531000D01*
Y741000D02*
X427000D01*
Y1531000D01*
X4521200Y1363860D02*
X4597400D01*
Y1366400D02*
Y1630680D01*
X4445000D02*
X4597400D01*
X4445000Y1366400D02*
Y1630680D01*
Y1363860D02*
X4521200D01*
X4264660Y1649680D02*
X4335780Y1649800D01*
X4338320Y1347540D02*
Y1649800D01*
X4196080Y1347540D02*
X4335780D01*
X4196080D02*
Y1649796D01*
X4264660Y1649680D01*
X4010660Y1650880D02*
X4081780Y1651000D01*
X4084320Y1348740D02*
Y1651000D01*
X3942080Y1348740D02*
X4081780D01*
X3942080D02*
Y1650996D01*
X4010660Y1650880D01*
X3759200Y1363860D02*
X3835400D01*
Y1366400D02*
Y1630680D01*
X3683000D02*
X3835400D01*
X3683000Y1366400D02*
Y1630680D01*
Y1363860D02*
X3759200D01*
X3409080Y1387800D02*
Y1507800D01*
Y1387800D02*
X3609080D01*
Y1507800D01*
X3409080D02*
X3609080D01*
X647700Y635000D02*
Y1056640D01*
Y635000D02*
X1640840D01*
X647700Y1056640D02*
X1640840D01*
Y635000D02*
Y1056640D01*
X4800600Y890460D02*
Y1140460D01*
X3199560Y1140544D02*
X4799760Y1141920D01*
X3199560Y640376D02*
Y1140544D01*
Y640376D02*
X4799760Y639000D01*
X4800600Y640460D02*
Y890460D01*
X2379089Y1504243D02*
X2320183Y1563150D01*
X2296620D01*
X2273057Y1539587D01*
Y1516025D01*
X2331964Y1457118D01*
X2237713Y1504243D02*
X2214151Y1480681D01*
X2225932Y1492462D01*
X2296620Y1421774D01*
Y1445337D01*
X3417321Y1458548D02*
Y1441886D01*
X3450643Y1408564D01*
X3483966Y1441886D01*
Y1458548D01*
X3450643Y1408564D02*
Y1358580D01*
X3583933D02*
X3517288D01*
X3583933Y1425225D01*
Y1441886D01*
X3567272Y1458548D01*
X3533950D01*
X3517288Y1441886D01*
D48*
X3007095Y1229621D02*
G03*
X3007095Y1229621I-12500J0D01*
G01*
D49*
X2872619Y1107644D02*
Y1178356D01*
X2413000Y1637975D02*
X2907975Y1143000D01*
X1918025D02*
X2413000Y1637975D01*
X1918025Y1143000D02*
X2413000Y648025D01*
X2907975Y1143000D01*
D66*
X4996164Y1506253D02*
Y1557037D01*
Y1531645D01*
X4869205D01*
X4843814Y1557037D01*
Y1582428D01*
X4869205Y1607820D01*
X4843814Y1455469D02*
X4996164D01*
Y1379294D01*
X4970772Y1353902D01*
X4919989D01*
X4894597Y1379294D01*
Y1455469D01*
X4843814Y1226943D02*
X4996164D01*
X4919989Y1303119D01*
Y1201551D01*
X5080034Y368315D02*
X5130818D01*
X5105426D01*
Y495274D01*
X5130818Y520665D01*
X5156209D01*
X5181601Y495274D01*
X5029250Y520665D02*
Y368315D01*
X4953075D01*
X4927683Y393707D01*
Y444490D01*
X4953075Y469882D01*
X5029250D01*
X4876900Y393707D02*
X4851508Y368315D01*
X4800724D01*
X4775332Y393707D01*
Y419098D01*
X4800724Y444490D01*
X4826116D01*
X4800724D01*
X4775332Y469882D01*
Y495274D01*
X4800724Y520665D01*
X4851508D01*
X4876900Y495274D01*
X5080034Y2019315D02*
X5130818D01*
X5105426D01*
Y2146274D01*
X5130818Y2171665D01*
X5156209D01*
X5181601Y2146274D01*
X5029250Y2171665D02*
Y2019315D01*
X4953075D01*
X4927683Y2044707D01*
Y2095490D01*
X4953075Y2120882D01*
X5029250D01*
X4775332Y2171665D02*
X4876900D01*
X4775332Y2070098D01*
Y2044707D01*
X4800724Y2019315D01*
X4851508D01*
X4876900Y2044707D01*
X-63816Y1401460D02*
X-190775D01*
X-216167Y1376068D01*
Y1325284D01*
X-190775Y1299892D01*
X-63816D01*
X-89208Y1249109D02*
X-63816Y1223717D01*
Y1172934D01*
X-89208Y1147542D01*
X-114599D01*
X-139991Y1172934D01*
Y1198326D01*
Y1172934D01*
X-165383Y1147542D01*
X-190775D01*
X-216167Y1172934D01*
Y1223717D01*
X-190775Y1249109D01*
X4594860Y1389380D02*
X4494892D01*
Y1439364D01*
X4511554Y1456025D01*
X4544876D01*
X4561537Y1439364D01*
Y1389380D01*
Y1422703D02*
X4594860Y1456025D01*
Y1489348D02*
Y1522670D01*
Y1506009D01*
X4494892D01*
X4511554Y1489348D01*
X4325571Y1611700D02*
X4173220D01*
Y1535525D01*
X4198612Y1510133D01*
X4300179D01*
X4325571Y1535525D01*
Y1611700D01*
X4173220Y1459349D02*
Y1408566D01*
Y1433958D01*
X4325571D01*
X4300179Y1459349D01*
X4071571Y1612900D02*
X3919220D01*
Y1536725D01*
X3944612Y1511333D01*
X4046179D01*
X4071571Y1536725D01*
Y1612900D01*
X3919220Y1358982D02*
Y1460549D01*
X4020787Y1358982D01*
X4046179D01*
X4071571Y1384374D01*
Y1435157D01*
X4046179Y1460549D01*
X3832860Y1389380D02*
X3732892D01*
Y1439364D01*
X3749554Y1456025D01*
X3782876D01*
X3799537Y1439364D01*
Y1389380D01*
Y1422703D02*
X3832860Y1456025D01*
X3732892Y1555993D02*
Y1489348D01*
X3782876D01*
X3766215Y1522670D01*
Y1539332D01*
X3782876Y1555993D01*
X3816199D01*
X3832860Y1539332D01*
Y1506009D01*
X3816199Y1489348D01*
X1435133Y896661D02*
X1460525Y871269D01*
X1511308D01*
X1536700Y896661D01*
Y922053D01*
X1511308Y947445D01*
X1460525D01*
X1435133Y972837D01*
Y998228D01*
X1460525Y1023620D01*
X1511308D01*
X1536700Y998228D01*
X1384349Y871269D02*
Y1023620D01*
X1333566Y972837D01*
X1282782Y1023620D01*
Y871269D01*
X1231999Y1023620D02*
X1181215D01*
X1206607D01*
Y871269D01*
X1231999Y896661D01*
%TF.MD5,7cb52aada9796ae8a410572b068ce4da*%
M02*
