%TF.GenerationSoftware,Altium Limited,Altium Designer,21.4.1 (30)*%
G04 Layer_Color=32896*
%FSLAX45Y45*%
%MOMM*%
%TF.SameCoordinates,7FD8979F-C22B-4491-80EA-6B84785AAA14*%
%TF.FilePolarity,Positive*%
%TF.FileFunction,Legend,Bot*%
%TF.Part,Single*%
G01*
G75*
%TA.AperFunction,NonConductor*%
%ADD30C,0.20000*%
%ADD31C,0.12700*%
D30*
X2738120Y1247260D02*
X2806700D01*
Y1247140D02*
Y1541780D01*
X2667000D02*
X2806700D01*
X2667000Y1247140D02*
Y1541780D01*
Y1247260D02*
X2738120D01*
X4653400Y515620D02*
Y584200D01*
X4653280Y515620D02*
X4947920D01*
Y655320D01*
X4653280D02*
X4947920D01*
X4653400Y584200D02*
Y655320D01*
X3266440Y1224280D02*
Y1559560D01*
X3073400Y1224280D02*
X3266440D01*
X3073400D02*
Y1562100D01*
X3266440D01*
X4028440Y1224280D02*
Y1559560D01*
X3835400Y1224280D02*
X4028440D01*
X3835400D02*
Y1562100D01*
X4028440D01*
X3430920Y1234460D02*
X3670300Y1234440D01*
X3670920Y1344460D02*
Y1444460D01*
X3430920Y1554460D02*
X3670920D01*
X2280920Y1529200D02*
X2357120D01*
Y1262380D02*
Y1526660D01*
X2204720Y1262380D02*
X2357120D01*
X2204720D02*
Y1526660D01*
Y1529200D02*
X2280920D01*
X2413000Y1226820D02*
X2606040D01*
Y1564640D01*
X2413000D02*
X2606040D01*
X2413000Y1229360D02*
Y1564640D01*
X2872740Y1541660D02*
X2941320D01*
X2872740Y1247140D02*
Y1541780D01*
Y1247140D02*
X3012440D01*
Y1541780D01*
X2941320Y1541660D02*
X3012440D01*
X4091940D02*
X4160520D01*
X4091940Y1247140D02*
Y1541780D01*
Y1247140D02*
X4231640D01*
Y1541780D01*
X4160520Y1541660D02*
X4231640D01*
X2720340Y724020D02*
X2791460D01*
X2720340Y723900D02*
Y1018540D01*
X2860040D01*
Y723900D02*
Y1018540D01*
X2791460Y724020D02*
X2860040D01*
X2994660D02*
X3063240D01*
Y723900D02*
Y1018540D01*
X2923540D02*
X3063240D01*
X2923540Y723900D02*
Y1018540D01*
Y724020D02*
X2994660D01*
X3126740D02*
X3197860D01*
X3126740Y723900D02*
Y1018540D01*
X3266440D01*
Y723900D02*
Y1018540D01*
X3197860Y724020D02*
X3266440D01*
X3401060D02*
X3469640D01*
Y723900D02*
Y1018540D01*
X3329940D02*
X3469640D01*
X3329940Y723900D02*
Y1018540D01*
Y724020D02*
X3401060D01*
X3553460Y736480D02*
X3629660D01*
X3553460Y739020D02*
Y1003300D01*
X3705860D01*
Y739020D02*
Y1003300D01*
X3629660Y736480D02*
X3705860D01*
X3761740Y724020D02*
X3832860D01*
X3761740Y723900D02*
Y1018540D01*
X3901440D01*
Y723900D02*
Y1018540D01*
X3832860Y724020D02*
X3901440D01*
X3964940D02*
X4036060D01*
X3964940Y723900D02*
Y1018540D01*
X4104640D01*
Y723900D02*
Y1018540D01*
X4036060Y724020D02*
X4104640D01*
X4239260D02*
X4307840D01*
Y723900D02*
Y1018540D01*
X4168140D02*
X4307840D01*
X4168140Y723900D02*
Y1018540D01*
Y724020D02*
X4239260D01*
X4442460D02*
X4511040D01*
Y723900D02*
Y1018540D01*
X4371340D02*
X4511040D01*
X4371340Y723900D02*
Y1018540D01*
Y724020D02*
X4442460D01*
X418980Y1046480D02*
Y1122680D01*
X421520D02*
X685800D01*
Y970280D02*
Y1122680D01*
X421520Y970280D02*
X685800D01*
X418980D02*
Y1046480D01*
X685920Y787400D02*
Y863600D01*
X419100Y787400D02*
X683380D01*
X419100D02*
Y939800D01*
X683380D01*
X685920Y863600D02*
Y939800D01*
Y1216660D02*
Y1292860D01*
X419100Y1216660D02*
X683380D01*
X419100D02*
Y1369060D01*
X683380D01*
X685920Y1292860D02*
Y1369060D01*
X1600200Y1135260D02*
X1676400D01*
X1600200Y1137800D02*
Y1402080D01*
X1752600D01*
Y1137800D02*
Y1402080D01*
X1676400Y1135260D02*
X1752600D01*
X1879600Y1404740D02*
X1955800D01*
Y1137920D02*
Y1402200D01*
X1803400Y1137920D02*
X1955800D01*
X1803400D02*
Y1402200D01*
Y1404740D02*
X1879600D01*
D31*
X4719740Y762840D02*
X4730320Y773420D01*
X4751480D01*
X4762060Y762840D01*
Y720520D01*
X4751480Y709940D01*
X4730320D01*
X4719740Y720520D01*
X4698580Y773420D02*
X4656260D01*
Y762840D01*
X4698580Y720520D01*
Y709940D01*
X3603820Y1667500D02*
Y1614600D01*
X3593240Y1604020D01*
X3572080D01*
X3561500Y1614600D01*
Y1667500D01*
X3498020Y1604020D02*
X3540340D01*
X3498020Y1646340D01*
Y1656920D01*
X3508600Y1667500D01*
X3529760D01*
X3540340Y1656920D01*
X3663940Y682820D02*
X3600460D01*
Y651080D01*
X3611040Y640500D01*
X3632200D01*
X3642780Y651080D01*
Y682820D01*
Y661660D02*
X3663940Y640500D01*
X3653360Y619340D02*
X3663940Y608760D01*
Y587600D01*
X3653360Y577020D01*
X3611040D01*
X3600460Y587600D01*
Y608760D01*
X3611040Y619340D01*
X3621620D01*
X3632200Y608760D01*
Y577020D01*
X347540Y1017280D02*
Y1080760D01*
X315800D01*
X305220Y1070180D01*
Y1049020D01*
X315800Y1038440D01*
X347540D01*
X326380D02*
X305220Y1017280D01*
X284060Y1070180D02*
X273480Y1080760D01*
X252320D01*
X241740Y1070180D01*
Y1059600D01*
X252320Y1049020D01*
X241740Y1038440D01*
Y1027860D01*
X252320Y1017280D01*
X273480D01*
X284060Y1027860D01*
Y1038440D01*
X273480Y1049020D01*
X284060Y1059600D01*
Y1070180D01*
X273480Y1049020D02*
X252320D01*
X342460Y834400D02*
Y897880D01*
X310720D01*
X300140Y887300D01*
Y866140D01*
X310720Y855560D01*
X342460D01*
X321300D02*
X300140Y834400D01*
X278980Y897880D02*
X236660D01*
Y887300D01*
X278980Y844980D01*
Y834400D01*
X342460Y1263660D02*
Y1327140D01*
X310720D01*
X300140Y1316560D01*
Y1295400D01*
X310720Y1284820D01*
X342460D01*
X321300D02*
X300140Y1263660D01*
X236660Y1327140D02*
X257820Y1316560D01*
X278980Y1295400D01*
Y1274240D01*
X268400Y1263660D01*
X247240D01*
X236660Y1274240D01*
Y1284820D01*
X247240Y1295400D01*
X278980D01*
X1911339Y1073980D02*
X1847860D01*
Y1042240D01*
X1858440Y1031660D01*
X1879599D01*
X1890180Y1042240D01*
Y1073980D01*
Y1052820D02*
X1911339Y1031660D01*
Y978761D02*
X1847860D01*
X1879599Y1010500D01*
Y968181D01*
X1703059Y1071440D02*
X1639580D01*
Y1039700D01*
X1650160Y1029120D01*
X1671319D01*
X1681900Y1039700D01*
Y1071440D01*
Y1050280D02*
X1703059Y1029120D01*
X1650160Y1007960D02*
X1639580Y997381D01*
Y976221D01*
X1650160Y965641D01*
X1660740D01*
X1671319Y976221D01*
Y986801D01*
Y976221D01*
X1681900Y965641D01*
X1692479D01*
X1703059Y976221D01*
Y997381D01*
X1692479Y1007960D01*
X2320280Y1708980D02*
X2256800D01*
Y1677240D01*
X2267380Y1666660D01*
X2288540D01*
X2299120Y1677240D01*
Y1708980D01*
Y1687820D02*
X2320280Y1666660D01*
Y1603180D02*
Y1645500D01*
X2277960Y1603180D01*
X2267380D01*
X2256800Y1613760D01*
Y1634920D01*
X2267380Y1645500D01*
X4428920Y639010D02*
X4418340Y649590D01*
Y670749D01*
X4428920Y681329D01*
X4471240D01*
X4481820Y670749D01*
Y649590D01*
X4471240Y639010D01*
X4481820Y617850D02*
Y596690D01*
Y607270D01*
X4418340D01*
X4428920Y617850D01*
X4418340Y522631D02*
Y564950D01*
X4450080D01*
X4439500Y543791D01*
Y533211D01*
X4450080Y522631D01*
X4471240D01*
X4481820Y533211D01*
Y554370D01*
X4471240Y564950D01*
X4012360Y639010D02*
X4001780Y649590D01*
Y670749D01*
X4012360Y681329D01*
X4054680D01*
X4065260Y670749D01*
Y649590D01*
X4054680Y639010D01*
X4065260Y617850D02*
Y596690D01*
Y607270D01*
X4001780D01*
X4012360Y617850D01*
X4065260Y533211D02*
X4001780D01*
X4033520Y564950D01*
Y522631D01*
X4218100Y639010D02*
X4207520Y649590D01*
Y670750D01*
X4218100Y681330D01*
X4260419D01*
X4270999Y670750D01*
Y649590D01*
X4260419Y639010D01*
X4270999Y617850D02*
Y596690D01*
Y607270D01*
X4207520D01*
X4218100Y617850D01*
Y564951D02*
X4207520Y554371D01*
Y533211D01*
X4218100Y522631D01*
X4228680D01*
X4239259Y533211D01*
Y543791D01*
Y533211D01*
X4249840Y522631D01*
X4260419D01*
X4270999Y533211D01*
Y554371D01*
X4260419Y564951D01*
X3806620Y639010D02*
X3796040Y649590D01*
Y670750D01*
X3806620Y681330D01*
X3848939D01*
X3859519Y670750D01*
Y649590D01*
X3848939Y639010D01*
X3859519Y617850D02*
Y596690D01*
Y607270D01*
X3796040D01*
X3806620Y617850D01*
X3859519Y522631D02*
Y564951D01*
X3817200Y522631D01*
X3806620D01*
X3796040Y533211D01*
Y554371D01*
X3806620Y564951D01*
X3377360Y638590D02*
X3366780Y649169D01*
Y670329D01*
X3377360Y680909D01*
X3419680D01*
X3430260Y670329D01*
Y649169D01*
X3419680Y638590D01*
X3430260Y617430D02*
Y596270D01*
Y606850D01*
X3366780D01*
X3377360Y617430D01*
X3430260Y564530D02*
Y543371D01*
Y553950D01*
X3366780D01*
X3377360Y564530D01*
X3176700Y639010D02*
X3166120Y649590D01*
Y670750D01*
X3176700Y681330D01*
X3219019D01*
X3229599Y670750D01*
Y649590D01*
X3219019Y639010D01*
X3229599Y617850D02*
Y596690D01*
Y607270D01*
X3166120D01*
X3176700Y617850D01*
Y564951D02*
X3166120Y554371D01*
Y533211D01*
X3176700Y522631D01*
X3219019D01*
X3229599Y533211D01*
Y554371D01*
X3219019Y564951D01*
X3176700D01*
X2963340Y637960D02*
X2952760Y648540D01*
Y669700D01*
X2963340Y680280D01*
X3005660D01*
X3016240Y669700D01*
Y648540D01*
X3005660Y637960D01*
Y616800D02*
X3016240Y606220D01*
Y585060D01*
X3005660Y574480D01*
X2963340D01*
X2952760Y585060D01*
Y606220D01*
X2963340Y616800D01*
X2973920D01*
X2984500Y606220D01*
Y574480D01*
X2760140Y637960D02*
X2749560Y648540D01*
Y669700D01*
X2760140Y680280D01*
X2802460D01*
X2813040Y669700D01*
Y648540D01*
X2802460Y637960D01*
X2760140Y616800D02*
X2749560Y606220D01*
Y585060D01*
X2760140Y574480D01*
X2770720D01*
X2781300Y585060D01*
X2791880Y574480D01*
X2802460D01*
X2813040Y585060D01*
Y606220D01*
X2802460Y616800D01*
X2791880D01*
X2781300Y606220D01*
X2770720Y616800D01*
X2760140D01*
X2781300Y606220D02*
Y585060D01*
X4139360Y1679360D02*
X4128780Y1689940D01*
Y1711100D01*
X4139360Y1721680D01*
X4181680D01*
X4192260Y1711100D01*
Y1689940D01*
X4181680Y1679360D01*
X4128780Y1615880D02*
X4139360Y1637040D01*
X4160520Y1658200D01*
X4181680D01*
X4192260Y1647620D01*
Y1626460D01*
X4181680Y1615880D01*
X4171100D01*
X4160520Y1626460D01*
Y1658200D01*
X3905680Y1679360D02*
X3895100Y1689940D01*
Y1711100D01*
X3905680Y1721680D01*
X3948000D01*
X3958580Y1711100D01*
Y1689940D01*
X3948000Y1679360D01*
X3895100Y1615880D02*
Y1658200D01*
X3926840D01*
X3916260Y1637040D01*
Y1626460D01*
X3926840Y1615880D01*
X3948000D01*
X3958580Y1626460D01*
Y1647620D01*
X3948000Y1658200D01*
X2719500Y1676820D02*
X2708920Y1687400D01*
Y1708560D01*
X2719500Y1719140D01*
X2761820D01*
X2772400Y1708560D01*
Y1687400D01*
X2761820Y1676820D01*
X2772400Y1623920D02*
X2708920D01*
X2740660Y1655660D01*
Y1613340D01*
X2927780Y1676820D02*
X2917200Y1687400D01*
Y1708560D01*
X2927780Y1719140D01*
X2970100D01*
X2980680Y1708560D01*
Y1687400D01*
X2970100Y1676820D01*
X2927780Y1655660D02*
X2917200Y1645080D01*
Y1623920D01*
X2927780Y1613340D01*
X2938360D01*
X2948940Y1623920D01*
Y1634500D01*
Y1623920D01*
X2959520Y1613340D01*
X2970100D01*
X2980680Y1623920D01*
Y1645080D01*
X2970100Y1655660D01*
X3153840Y1676820D02*
X3143260Y1687400D01*
Y1708560D01*
X3153840Y1719140D01*
X3196159D01*
X3206739Y1708560D01*
Y1687400D01*
X3196159Y1676820D01*
X3206739Y1613341D02*
Y1655660D01*
X3164420Y1613341D01*
X3153840D01*
X3143260Y1623921D01*
Y1645081D01*
X3153840Y1655660D01*
X2493440Y1673860D02*
X2482860Y1684440D01*
Y1705600D01*
X2493440Y1716179D01*
X2535760D01*
X2546340Y1705600D01*
Y1684440D01*
X2535760Y1673860D01*
X2546340Y1652700D02*
Y1631540D01*
Y1642120D01*
X2482860D01*
X2493440Y1652700D01*
%TF.MD5,988eeb07e6db68d4ba2e81df2cc87ada*%
M02*
