%TF.GenerationSoftware,Altium Limited,Altium Designer,21.4.1 (30)*%
G04 Layer_Color=65535*
%FSLAX45Y45*%
%MOMM*%
%TF.SameCoordinates,7FD8979F-C22B-4491-80EA-6B84785AAA14*%
%TF.FilePolarity,Positive*%
%TF.FileFunction,Legend,Top*%
%TF.Part,Single*%
G01*
G75*
%TA.AperFunction,NonConductor*%
%ADD30C,0.20000*%
%ADD31C,0.12700*%
%ADD47C,0.40000*%
%ADD48C,0.25000*%
%ADD49C,0.10000*%
%ADD50C,0.10160*%
D30*
X4947920Y1651000D02*
X5207000D01*
Y635000D02*
Y1651000D01*
X4947920Y635000D02*
X5207000D01*
X4947920D02*
Y1651000D01*
X4942840D02*
X5201920D01*
Y635000D02*
Y1651000D01*
X4942840Y635000D02*
X5201920D01*
X4942840D02*
Y1651000D01*
X5181600Y444500D02*
X5207000D01*
Y190500D02*
Y444500D01*
X127000Y190500D02*
Y444500D01*
X5181600D01*
X127000Y190500D02*
X5207000D01*
X127000Y1841500D02*
X5207000D01*
X127000Y2095500D02*
X5181600D01*
X127000Y1841500D02*
Y2095500D01*
X5207000Y1841500D02*
Y2095500D01*
X5181600D02*
X5207000D01*
X762000Y1333500D02*
Y1651000D01*
Y1143000D02*
Y1460500D01*
Y1143000D02*
X1524000D01*
Y1651000D01*
X762000D02*
X1524000D01*
X-140000Y741000D02*
X2240Y741060D01*
X-140000Y1531000D02*
X2240D01*
X-140000Y741000D02*
Y1531000D01*
X2413000Y1588477D02*
X2858477Y1143000D01*
X1967523D02*
X2413000Y1588477D01*
X1967523Y1143000D02*
X2413000Y697523D01*
X2858477Y1143000D01*
X4521200Y1363860D02*
X4597400D01*
Y1366400D02*
Y1630680D01*
X4445000D02*
X4597400D01*
X4445000Y1366400D02*
Y1630680D01*
Y1363860D02*
X4521200D01*
X4267200Y1649680D02*
X4338320Y1649800D01*
Y1347540D02*
Y1649800D01*
X4198620Y1347540D02*
X4338320D01*
X4196080D02*
Y1647260D01*
Y1649800D02*
X4267200Y1649680D01*
X4013200Y1650880D02*
X4084320Y1651000D01*
Y1348740D02*
Y1651000D01*
X3944620Y1348740D02*
X4084320D01*
X3942080D02*
Y1648460D01*
Y1651000D02*
X4013200Y1650880D01*
X3759200Y1363860D02*
X3835400D01*
Y1366400D02*
Y1630680D01*
X3683000D02*
X3835400D01*
X3683000Y1366400D02*
Y1630680D01*
Y1363860D02*
X3759200D01*
X647700Y635000D02*
Y1056640D01*
Y635000D02*
X1640840D01*
X647700Y1056640D02*
X1640840D01*
Y635000D02*
Y1056640D01*
X4798900Y889000D02*
Y1139000D01*
X3197860Y1139084D02*
X4798060Y1140460D01*
X3197860Y638916D02*
Y1139084D01*
Y638916D02*
X4798060Y637540D01*
X4798900Y639000D02*
Y889000D01*
X279056Y2197385D02*
X265727Y2210714D01*
X239069D01*
X225740Y2197385D01*
Y2144069D01*
X239069Y2130740D01*
X265727D01*
X279056Y2144069D01*
Y2170727D01*
X252398D01*
X530516Y2197385D02*
X517187Y2210714D01*
X490529D01*
X477200Y2197385D01*
Y2144069D01*
X490529Y2130740D01*
X517187D01*
X530516Y2144069D01*
Y2170727D01*
X503858D01*
X655000Y2194845D02*
X668329Y2208174D01*
X694987D01*
X708316Y2194845D01*
Y2181516D01*
X694987Y2168187D01*
X681658D01*
X694987D01*
X708316Y2154858D01*
Y2141529D01*
X694987Y2128200D01*
X668329D01*
X655000Y2141529D01*
X734974Y2208174D02*
Y2154858D01*
X761632Y2128200D01*
X788290Y2154858D01*
Y2208174D01*
X814948Y2194845D02*
X828277Y2208174D01*
X854936D01*
X868264Y2194845D01*
Y2181516D01*
X854936Y2168187D01*
X841606D01*
X854936D01*
X868264Y2154858D01*
Y2141529D01*
X854936Y2128200D01*
X828277D01*
X814948Y2141529D01*
X1190940Y2210714D02*
Y2130740D01*
X1230927D01*
X1244256Y2144069D01*
Y2157398D01*
X1230927Y2170727D01*
X1190940D01*
X1230927D01*
X1244256Y2184056D01*
Y2197385D01*
X1230927Y2210714D01*
X1190940D01*
X1270914Y2130740D02*
X1297572D01*
X1284243D01*
Y2210714D01*
X1270914Y2197385D01*
X1337559Y2130740D02*
X1364217D01*
X1350889D01*
Y2210714D01*
X1337559Y2197385D01*
X918642Y505140D02*
Y585114D01*
X958629D01*
X971958Y571785D01*
Y545127D01*
X958629Y531798D01*
X918642D01*
X945300D02*
X971958Y505140D01*
X1051932Y585114D02*
X998616D01*
Y505140D01*
X1051932D01*
X998616Y545127D02*
X1025274D01*
X1131906Y571785D02*
X1118577Y585114D01*
X1091919D01*
X1078590Y571785D01*
Y558456D01*
X1091919Y545127D01*
X1118577D01*
X1131906Y531798D01*
Y518469D01*
X1118577Y505140D01*
X1091919D01*
X1078590Y518469D01*
X1211880Y585114D02*
X1158564D01*
Y505140D01*
X1211880D01*
X1158564Y545127D02*
X1185222D01*
X1238538Y585114D02*
X1291854D01*
X1265196D01*
Y505140D01*
X4983160Y137445D02*
X4996489Y150774D01*
X5023147D01*
X5036476Y137445D01*
Y124116D01*
X5023147Y110787D01*
X5009818D01*
X5023147D01*
X5036476Y97458D01*
Y84129D01*
X5023147Y70800D01*
X4996489D01*
X4983160Y84129D01*
X5063134Y150774D02*
Y97458D01*
X5089792Y70800D01*
X5116450Y97458D01*
Y150774D01*
X5143108Y137445D02*
X5156437Y150774D01*
X5183096D01*
X5196424Y137445D01*
Y124116D01*
X5183096Y110787D01*
X5169766D01*
X5183096D01*
X5196424Y97458D01*
Y84129D01*
X5183096Y70800D01*
X5156437D01*
X5143108Y84129D01*
X4848516Y142525D02*
X4835187Y155854D01*
X4808529D01*
X4795200Y142525D01*
Y89209D01*
X4808529Y75880D01*
X4835187D01*
X4848516Y89209D01*
Y115867D01*
X4821858D01*
X4561295Y153314D02*
X4507979D01*
Y113327D01*
X4534637Y126656D01*
X4547967D01*
X4561295Y113327D01*
Y86669D01*
X4547967Y73340D01*
X4521308D01*
X4507979Y86669D01*
X4587953Y153314D02*
Y99998D01*
X4614612Y73340D01*
X4641270Y99998D01*
Y153314D01*
X4254180D02*
Y73340D01*
X4294167D01*
X4307496Y86669D01*
Y99998D01*
X4294167Y113327D01*
X4254180D01*
X4294167D01*
X4307496Y126656D01*
Y139985D01*
X4294167Y153314D01*
X4254180D01*
X4334154Y86669D02*
X4347483Y73340D01*
X4374141D01*
X4387470Y86669D01*
Y139985D01*
X4374141Y153314D01*
X4347483D01*
X4334154Y139985D01*
Y126656D01*
X4347483Y113327D01*
X4387470D01*
X4000180Y150774D02*
Y70800D01*
X4040167D01*
X4053496Y84129D01*
Y97458D01*
X4040167Y110787D01*
X4000180D01*
X4040167D01*
X4053496Y124116D01*
Y137445D01*
X4040167Y150774D01*
X4000180D01*
X4080154Y137445D02*
X4093483Y150774D01*
X4120141D01*
X4133470Y137445D01*
Y124116D01*
X4120141Y110787D01*
X4133470Y97458D01*
Y84129D01*
X4120141Y70800D01*
X4093483D01*
X4080154Y84129D01*
Y97458D01*
X4093483Y110787D01*
X4080154Y124116D01*
Y137445D01*
X4093483Y110787D02*
X4120141D01*
X3751260Y153314D02*
Y73340D01*
X3791247D01*
X3804576Y86669D01*
Y99998D01*
X3791247Y113327D01*
X3751260D01*
X3791247D01*
X3804576Y126656D01*
Y139985D01*
X3791247Y153314D01*
X3751260D01*
X3831234D02*
X3884550D01*
Y139985D01*
X3831234Y86669D01*
Y73340D01*
X3497260Y155854D02*
Y75880D01*
X3537247D01*
X3550576Y89209D01*
Y102538D01*
X3537247Y115867D01*
X3497260D01*
X3537247D01*
X3550576Y129196D01*
Y142525D01*
X3537247Y155854D01*
X3497260D01*
X3630550D02*
X3603892Y142525D01*
X3577234Y115867D01*
Y89209D01*
X3590563Y75880D01*
X3617221D01*
X3630550Y89209D01*
Y102538D01*
X3617221Y115867D01*
X3577234D01*
X3237979Y153314D02*
Y73340D01*
X3277967D01*
X3291295Y86669D01*
Y99998D01*
X3277967Y113327D01*
X3237979D01*
X3277967D01*
X3291295Y126656D01*
Y139985D01*
X3277967Y153314D01*
X3237979D01*
X3371270D02*
X3317953D01*
Y113327D01*
X3344612Y126656D01*
X3357941D01*
X3371270Y113327D01*
Y86669D01*
X3357941Y73340D01*
X3331283D01*
X3317953Y86669D01*
X2986720Y153314D02*
Y73340D01*
X3026707D01*
X3040036Y86669D01*
Y99998D01*
X3026707Y113327D01*
X2986720D01*
X3026707D01*
X3040036Y126656D01*
Y139985D01*
X3026707Y153314D01*
X2986720D01*
X3106681Y73340D02*
Y153314D01*
X3066694Y113327D01*
X3120010D01*
X2742880Y153314D02*
Y73340D01*
X2782867D01*
X2796196Y86669D01*
Y99998D01*
X2782867Y113327D01*
X2742880D01*
X2782867D01*
X2796196Y126656D01*
Y139985D01*
X2782867Y153314D01*
X2742880D01*
X2822854Y139985D02*
X2836183Y153314D01*
X2862841D01*
X2876170Y139985D01*
Y126656D01*
X2862841Y113327D01*
X2849512D01*
X2862841D01*
X2876170Y99998D01*
Y86669D01*
X2862841Y73340D01*
X2836183D01*
X2822854Y86669D01*
X2450780Y70800D02*
Y124116D01*
X2477438Y150774D01*
X2504096Y124116D01*
Y70800D01*
Y110787D01*
X2450780D01*
X2530754Y70800D02*
X2557412D01*
X2544083D01*
Y150774D01*
X2530754Y137445D01*
X2650716Y150774D02*
X2597399D01*
Y110787D01*
X2624057Y124116D01*
X2637387D01*
X2650716Y110787D01*
Y84129D01*
X2637387Y70800D01*
X2610729D01*
X2597399Y84129D01*
X2189160Y70800D02*
Y124116D01*
X2215818Y150774D01*
X2242476Y124116D01*
Y70800D01*
Y110787D01*
X2189160D01*
X2269134Y70800D02*
X2295792D01*
X2282463D01*
Y150774D01*
X2269134Y137445D01*
X2389096Y70800D02*
X2335779D01*
X2389096Y124116D01*
Y137445D01*
X2375767Y150774D01*
X2349109D01*
X2335779Y137445D01*
X1942780Y73340D02*
Y126656D01*
X1969438Y153314D01*
X1996096Y126656D01*
Y73340D01*
Y113327D01*
X1942780D01*
X2022754Y73340D02*
X2049412D01*
X2036083D01*
Y153314D01*
X2022754Y139985D01*
X2089399Y73340D02*
X2116057D01*
X2102729D01*
Y153314D01*
X2089399Y139985D01*
X1688780Y73340D02*
Y126656D01*
X1715438Y153314D01*
X1742096Y126656D01*
Y73340D01*
Y113327D01*
X1688780D01*
X1768754Y73340D02*
X1795412D01*
X1782083D01*
Y153314D01*
X1768754Y139985D01*
X1835399D02*
X1848729Y153314D01*
X1875387D01*
X1888716Y139985D01*
Y86669D01*
X1875387Y73340D01*
X1848729D01*
X1835399Y86669D01*
Y139985D01*
X1467800Y70800D02*
Y124116D01*
X1494458Y150774D01*
X1521116Y124116D01*
Y70800D01*
Y110787D01*
X1467800D01*
X1547774Y84129D02*
X1561103Y70800D01*
X1587761D01*
X1601090Y84129D01*
Y137445D01*
X1587761Y150774D01*
X1561103D01*
X1547774Y137445D01*
Y124116D01*
X1561103Y110787D01*
X1601090D01*
X1213800Y70800D02*
Y124116D01*
X1240458Y150774D01*
X1267116Y124116D01*
Y70800D01*
Y110787D01*
X1213800D01*
X1293774Y137445D02*
X1307103Y150774D01*
X1333761D01*
X1347090Y137445D01*
Y124116D01*
X1333761Y110787D01*
X1347090Y97458D01*
Y84129D01*
X1333761Y70800D01*
X1307103D01*
X1293774Y84129D01*
Y97458D01*
X1307103Y110787D01*
X1293774Y124116D01*
Y137445D01*
X1307103Y110787D02*
X1333761D01*
X931860Y150774D02*
Y70800D01*
X971847D01*
X985176Y84129D01*
Y97458D01*
X971847Y110787D01*
X931860D01*
X971847D01*
X985176Y124116D01*
Y137445D01*
X971847Y150774D01*
X931860D01*
X1011834Y70800D02*
X1038492D01*
X1025163D01*
Y150774D01*
X1011834Y137445D01*
X1131796Y150774D02*
X1078479D01*
Y110787D01*
X1105137Y124116D01*
X1118467D01*
X1131796Y110787D01*
Y84129D01*
X1118467Y70800D01*
X1091809D01*
X1078479Y84129D01*
X675320Y150774D02*
Y70800D01*
X715307D01*
X728636Y84129D01*
Y97458D01*
X715307Y110787D01*
X675320D01*
X715307D01*
X728636Y124116D01*
Y137445D01*
X715307Y150774D01*
X675320D01*
X755294Y70800D02*
X781952D01*
X768623D01*
Y150774D01*
X755294Y137445D01*
X861927Y70800D02*
Y150774D01*
X821939Y110787D01*
X875256D01*
X416240Y150774D02*
Y70800D01*
X456227D01*
X469556Y84129D01*
Y97458D01*
X456227Y110787D01*
X416240D01*
X456227D01*
X469556Y124116D01*
Y137445D01*
X456227Y150774D01*
X416240D01*
X496214Y70800D02*
X522872D01*
X509543D01*
Y150774D01*
X496214Y137445D01*
X562859D02*
X576189Y150774D01*
X602847D01*
X616176Y137445D01*
Y124116D01*
X602847Y110787D01*
X589517D01*
X602847D01*
X616176Y97458D01*
Y84129D01*
X602847Y70800D01*
X576189D01*
X562859Y84129D01*
X157160Y153314D02*
Y73340D01*
X197147D01*
X210476Y86669D01*
Y99998D01*
X197147Y113327D01*
X157160D01*
X197147D01*
X210476Y126656D01*
Y139985D01*
X197147Y153314D01*
X157160D01*
X237134Y73340D02*
X263792D01*
X250463D01*
Y153314D01*
X237134Y139985D01*
X357096Y73340D02*
X303779D01*
X357096Y126656D01*
Y139985D01*
X343767Y153314D01*
X317109D01*
X303779Y139985D01*
X5018720Y2213254D02*
Y2159938D01*
X5045378Y2133280D01*
X5072036Y2159938D01*
Y2213254D01*
X5098694D02*
Y2133280D01*
X5138681D01*
X5152010Y2146609D01*
Y2159938D01*
X5138681Y2173267D01*
X5098694D01*
X5138681D01*
X5152010Y2186596D01*
Y2199925D01*
X5138681Y2213254D01*
X5098694D01*
X4779936Y2199925D02*
X4766607Y2213254D01*
X4739949D01*
X4726620Y2199925D01*
Y2146609D01*
X4739949Y2133280D01*
X4766607D01*
X4779936Y2146609D01*
X4806594Y2133280D02*
X4833252D01*
X4819923D01*
Y2213254D01*
X4806594Y2199925D01*
X4873239D02*
X4886569Y2213254D01*
X4913227D01*
X4926556Y2199925D01*
Y2186596D01*
X4913227Y2173267D01*
X4899897D01*
X4913227D01*
X4926556Y2159938D01*
Y2146609D01*
X4913227Y2133280D01*
X4886569D01*
X4873239Y2146609D01*
X4531016Y2197385D02*
X4517687Y2210714D01*
X4491029D01*
X4477700Y2197385D01*
Y2144069D01*
X4491029Y2130740D01*
X4517687D01*
X4531016Y2144069D01*
X4557674Y2130740D02*
X4584332D01*
X4571003D01*
Y2210714D01*
X4557674Y2197385D01*
X4664307Y2130740D02*
Y2210714D01*
X4624319Y2170727D01*
X4677636D01*
X4274476Y2197385D02*
X4261147Y2210714D01*
X4234489D01*
X4221160Y2197385D01*
Y2144069D01*
X4234489Y2130740D01*
X4261147D01*
X4274476Y2144069D01*
X4301134Y2130740D02*
X4327792D01*
X4314463D01*
Y2210714D01*
X4301134Y2197385D01*
X4421096Y2210714D02*
X4367779D01*
Y2170727D01*
X4394437Y2184056D01*
X4407767D01*
X4421096Y2170727D01*
Y2144069D01*
X4407767Y2130740D01*
X4381109D01*
X4367779Y2144069D01*
X4000180Y2130740D02*
Y2184056D01*
X4026838Y2210714D01*
X4053496Y2184056D01*
Y2130740D01*
Y2170727D01*
X4000180D01*
X4080154Y2197385D02*
X4093483Y2210714D01*
X4120141D01*
X4133470Y2197385D01*
Y2144069D01*
X4120141Y2130740D01*
X4093483D01*
X4080154Y2144069D01*
Y2197385D01*
X3751260Y2130740D02*
Y2184056D01*
X3777918Y2210714D01*
X3804576Y2184056D01*
Y2130740D01*
Y2170727D01*
X3751260D01*
X3831234Y2130740D02*
X3857892D01*
X3844563D01*
Y2210714D01*
X3831234Y2197385D01*
X3497260Y2130740D02*
Y2184056D01*
X3523918Y2210714D01*
X3550576Y2184056D01*
Y2130740D01*
Y2170727D01*
X3497260D01*
X3630550Y2130740D02*
X3577234D01*
X3630550Y2184056D01*
Y2197385D01*
X3617221Y2210714D01*
X3590563D01*
X3577234Y2197385D01*
X3228020Y2133280D02*
Y2186596D01*
X3254678Y2213254D01*
X3281336Y2186596D01*
Y2133280D01*
Y2173267D01*
X3228020D01*
X3307994Y2199925D02*
X3321323Y2213254D01*
X3347981D01*
X3361310Y2199925D01*
Y2186596D01*
X3347981Y2173267D01*
X3334652D01*
X3347981D01*
X3361310Y2159938D01*
Y2146609D01*
X3347981Y2133280D01*
X3321323D01*
X3307994Y2146609D01*
X2974020Y2130740D02*
Y2184056D01*
X3000678Y2210714D01*
X3027336Y2184056D01*
Y2130740D01*
Y2170727D01*
X2974020D01*
X3093981Y2130740D02*
Y2210714D01*
X3053994Y2170727D01*
X3107310D01*
X2720020Y2130740D02*
Y2184056D01*
X2746678Y2210714D01*
X2773336Y2184056D01*
Y2130740D01*
Y2170727D01*
X2720020D01*
X2853310Y2210714D02*
X2799994D01*
Y2170727D01*
X2826652Y2184056D01*
X2839981D01*
X2853310Y2170727D01*
Y2144069D01*
X2839981Y2130740D01*
X2813323D01*
X2799994Y2144069D01*
X2473640Y2133280D02*
Y2186596D01*
X2500298Y2213254D01*
X2526956Y2186596D01*
Y2133280D01*
Y2173267D01*
X2473640D01*
X2606930Y2213254D02*
X2580272Y2199925D01*
X2553614Y2173267D01*
Y2146609D01*
X2566943Y2133280D01*
X2593601D01*
X2606930Y2146609D01*
Y2159938D01*
X2593601Y2173267D01*
X2553614D01*
X2232340Y2133280D02*
Y2186596D01*
X2258998Y2213254D01*
X2285656Y2186596D01*
Y2133280D01*
Y2173267D01*
X2232340D01*
X2312314Y2213254D02*
X2365630D01*
Y2199925D01*
X2312314Y2146609D01*
Y2133280D01*
X1963100Y2210714D02*
Y2130740D01*
X2003087D01*
X2016416Y2144069D01*
Y2157398D01*
X2003087Y2170727D01*
X1963100D01*
X2003087D01*
X2016416Y2184056D01*
Y2197385D01*
X2003087Y2210714D01*
X1963100D01*
X2043074Y2197385D02*
X2056403Y2210714D01*
X2083061D01*
X2096390Y2197385D01*
Y2144069D01*
X2083061Y2130740D01*
X2056403D01*
X2043074Y2144069D01*
Y2197385D01*
X1724340Y2210714D02*
Y2130740D01*
X1764327D01*
X1777656Y2144069D01*
Y2157398D01*
X1764327Y2170727D01*
X1724340D01*
X1764327D01*
X1777656Y2184056D01*
Y2197385D01*
X1764327Y2210714D01*
X1724340D01*
X1804314Y2130740D02*
X1830972D01*
X1817643D01*
Y2210714D01*
X1804314Y2197385D01*
X1429700Y2210714D02*
Y2130740D01*
X1469687D01*
X1483016Y2144069D01*
Y2157398D01*
X1469687Y2170727D01*
X1429700D01*
X1469687D01*
X1483016Y2184056D01*
Y2197385D01*
X1469687Y2210714D01*
X1429700D01*
X1509674Y2130740D02*
X1536332D01*
X1523003D01*
Y2210714D01*
X1509674Y2197385D01*
X1576319D02*
X1589649Y2210714D01*
X1616307D01*
X1629636Y2197385D01*
Y2144069D01*
X1616307Y2130740D01*
X1589649D01*
X1576319Y2144069D01*
Y2197385D01*
X987740Y2130740D02*
Y2210714D01*
X1027727D01*
X1041056Y2197385D01*
Y2170727D01*
X1027727Y2157398D01*
X987740D01*
X1014398D02*
X1041056Y2130740D01*
D31*
X5258660Y1465580D02*
X5250197Y1474044D01*
Y1490972D01*
X5258660Y1499436D01*
X5267124D01*
X5275588Y1490972D01*
Y1482508D01*
Y1490972D01*
X5284052Y1499436D01*
X5292516D01*
X5300980Y1490972D01*
Y1474044D01*
X5292516Y1465580D01*
X5250197Y1516363D02*
X5284052D01*
X5300980Y1533291D01*
X5284052Y1550219D01*
X5250197D01*
X5258660Y1567147D02*
X5250197Y1575611D01*
Y1592539D01*
X5258660Y1601003D01*
X5267124D01*
X5275588Y1592539D01*
Y1584075D01*
Y1592539D01*
X5284052Y1601003D01*
X5292516D01*
X5300980Y1592539D01*
Y1575611D01*
X5292516Y1567147D01*
X5252737Y1214120D02*
X5303520D01*
Y1239512D01*
X5295056Y1247976D01*
X5261200D01*
X5252737Y1239512D01*
Y1214120D01*
Y1264903D02*
Y1281831D01*
Y1273368D01*
X5303520D01*
Y1264903D01*
Y1281831D01*
X5252737Y1332615D02*
Y1315687D01*
X5261200Y1307223D01*
X5295056D01*
X5303520Y1315687D01*
Y1332615D01*
X5295056Y1341079D01*
X5261200D01*
X5252737Y1332615D01*
Y916940D02*
X5303520D01*
Y942332D01*
X5295056Y950796D01*
X5261200D01*
X5252737Y942332D01*
Y916940D01*
X5261200Y1001579D02*
X5252737Y993115D01*
Y976188D01*
X5261200Y967723D01*
X5295056D01*
X5303520Y976188D01*
Y993115D01*
X5295056Y1001579D01*
X5252737Y1018507D02*
X5303520D01*
Y1052363D01*
X5252737Y1069290D02*
X5303520D01*
X5286592D01*
X5252737Y1103146D01*
X5278128Y1077755D01*
X5303520Y1103146D01*
X5261200Y719656D02*
X5252737Y711192D01*
Y694264D01*
X5261200Y685800D01*
X5295056D01*
X5303520Y694264D01*
Y711192D01*
X5295056Y719656D01*
X5278128D01*
Y702728D01*
X5303520Y736583D02*
X5252737D01*
X5303520Y770439D01*
X5252737D01*
Y787367D02*
X5303520D01*
Y812759D01*
X5295056Y821223D01*
X5261200D01*
X5252737Y812759D01*
Y787367D01*
X181201Y572760D02*
X160041D01*
X170621D01*
Y519860D01*
X160041Y509280D01*
X149461D01*
X138881Y519860D01*
X202360Y509280D02*
Y572760D01*
X234100D01*
X244680Y562180D01*
Y541020D01*
X234100Y530440D01*
X202360D01*
X265840Y562180D02*
X276420Y572760D01*
X297580D01*
X308159Y562180D01*
Y551600D01*
X297580Y541020D01*
X286999D01*
X297580D01*
X308159Y530440D01*
Y519860D01*
X297580Y509280D01*
X276420D01*
X265840Y519860D01*
X5080861Y1784340D02*
X5059701D01*
X5070281D01*
Y1731440D01*
X5059701Y1720860D01*
X5049121D01*
X5038541Y1731440D01*
X5102020Y1720860D02*
Y1784340D01*
X5133760D01*
X5144340Y1773760D01*
Y1752600D01*
X5133760Y1742020D01*
X5102020D01*
X5207819Y1720860D02*
X5165500D01*
X5207819Y1763180D01*
Y1773760D01*
X5197240Y1784340D01*
X5176080D01*
X5165500Y1773760D01*
X3477340Y1583521D02*
X3487920D01*
X3509080Y1604681D01*
X3487920Y1625841D01*
X3477340D01*
X3509080Y1604681D02*
X3540820D01*
Y1689320D02*
Y1647000D01*
X3498500Y1689320D01*
X3487920D01*
X3477340Y1678740D01*
Y1657580D01*
X3487920Y1647000D01*
X3200400Y1280139D02*
Y1269560D01*
X3221560Y1248400D01*
X3242720Y1269560D01*
Y1280139D01*
X3221560Y1248400D02*
Y1216660D01*
X3263879D02*
X3285039D01*
X3274459D01*
Y1280139D01*
X3263879Y1269560D01*
X76640Y1746240D02*
Y1693340D01*
X87220Y1682760D01*
X108380D01*
X118960Y1693340D01*
Y1746240D01*
X140120Y1735660D02*
X150700Y1746240D01*
X171860D01*
X182440Y1735660D01*
Y1725080D01*
X171860Y1714500D01*
X161280D01*
X171860D01*
X182440Y1703920D01*
Y1693340D01*
X171860Y1682760D01*
X150700D01*
X140120Y1693340D01*
X2017621Y1723380D02*
Y1670480D01*
X2028200Y1659900D01*
X2049360D01*
X2059940Y1670480D01*
Y1723380D01*
X2081100Y1659900D02*
X2102260D01*
X2091680D01*
Y1723380D01*
X2081100Y1712800D01*
X1686134Y947621D02*
X1675554Y937041D01*
Y915881D01*
X1686134Y905301D01*
X1696714D01*
X1707294Y915881D01*
Y937041D01*
X1717874Y947621D01*
X1728454D01*
X1739034Y937041D01*
Y915881D01*
X1728454Y905301D01*
X1675554Y968780D02*
X1739034D01*
X1717874Y989940D01*
X1739034Y1011100D01*
X1675554D01*
X1739034Y1032260D02*
Y1053420D01*
Y1042840D01*
X1675554D01*
X1686134Y1032260D01*
X3698680Y1723400D02*
Y1786880D01*
X3730420D01*
X3741000Y1776300D01*
Y1755140D01*
X3730420Y1744560D01*
X3698680D01*
X3719840D02*
X3741000Y1723400D01*
X3804480Y1786880D02*
X3762160D01*
Y1755140D01*
X3783320Y1765720D01*
X3793900D01*
X3804480Y1755140D01*
Y1733980D01*
X3793900Y1723400D01*
X3772740D01*
X3762160Y1733980D01*
X4478881Y1720860D02*
Y1784340D01*
X4510620D01*
X4521200Y1773760D01*
Y1752600D01*
X4510620Y1742020D01*
X4478881D01*
X4500040D02*
X4521200Y1720860D01*
X4542360D02*
X4563520D01*
X4552940D01*
Y1784340D01*
X4542360Y1773760D01*
X4824740Y1512161D02*
Y1491001D01*
Y1501581D01*
X4877640D01*
X4888220Y1491001D01*
Y1480421D01*
X4877640Y1469841D01*
X4888220Y1533320D02*
X4824740D01*
Y1565060D01*
X4835320Y1575640D01*
X4856480D01*
X4867060Y1565060D01*
Y1533320D01*
X4888220Y1628540D02*
X4824740D01*
X4856480Y1596800D01*
Y1639119D01*
X1583700Y1540520D02*
Y1519360D01*
Y1529941D01*
X1636600D01*
X1647180Y1519360D01*
Y1508781D01*
X1636600Y1498201D01*
X1647180Y1561680D02*
X1583700D01*
Y1593420D01*
X1594280Y1604000D01*
X1615440D01*
X1626020Y1593420D01*
Y1561680D01*
X1647180Y1625160D02*
Y1646319D01*
Y1635739D01*
X1583700D01*
X1594280Y1625160D01*
X3957760Y1786880D02*
Y1723400D01*
X3989500D01*
X4000080Y1733980D01*
Y1776300D01*
X3989500Y1786880D01*
X3957760D01*
X4063560Y1723400D02*
X4021240D01*
X4063560Y1765720D01*
Y1776300D01*
X4052980Y1786880D01*
X4031820D01*
X4021240Y1776300D01*
X4227421Y1786880D02*
Y1723400D01*
X4259160D01*
X4269740Y1733980D01*
Y1776300D01*
X4259160Y1786880D01*
X4227421D01*
X4290900Y1723400D02*
X4312060D01*
X4301480D01*
Y1786880D01*
X4290900Y1776300D01*
D47*
X522940Y1277000D02*
G03*
X522940Y1277000I-2540J0D01*
G01*
D48*
X3007095Y1229621D02*
G03*
X3007095Y1229621I-12500J0D01*
G01*
D49*
X3489080Y1387800D02*
X3529080D01*
X3489080Y1507800D02*
X3529080D01*
D50*
X4203700Y1262380D02*
Y1313163D01*
X4229092D01*
X4237556Y1304700D01*
Y1287772D01*
X4229092Y1279308D01*
X4203700D01*
X4254483Y1313163D02*
Y1262380D01*
X4271411Y1279308D01*
X4288339Y1262380D01*
Y1313163D01*
X4305267Y1262380D02*
Y1313163D01*
X4330659D01*
X4339123Y1304700D01*
Y1287772D01*
X4330659Y1279308D01*
X4305267D01*
X4322195D02*
X4339123Y1262380D01*
X3929380D02*
Y1313163D01*
X3954772D01*
X3963236Y1304700D01*
Y1287772D01*
X3954772Y1279308D01*
X3929380D01*
X4014019Y1304700D02*
X4005555Y1313163D01*
X3988628D01*
X3980163Y1304700D01*
Y1270844D01*
X3988628Y1262380D01*
X4005555D01*
X4014019Y1270844D01*
X4030947Y1262380D02*
X4047875D01*
X4039411D01*
Y1313163D01*
X4030947Y1304700D01*
X4073267D02*
X4081731Y1313163D01*
X4098659D01*
X4107122Y1304700D01*
Y1296236D01*
X4098659Y1287772D01*
X4090195D01*
X4098659D01*
X4107122Y1279308D01*
Y1270844D01*
X4098659Y1262380D01*
X4081731D01*
X4073267Y1270844D01*
%TF.MD5,af9182443883c8780197420bcae2ecb3*%
M02*
