M48
;Layer_Color=9474304
;FILE_FORMAT=4:4
METRIC,LZ
;TYPE=PLATED
T1F00S00C0.3000
T2F00S00C1.1000
%
T01
X000272Y00124734
X0005461Y00122174
X00055306Y0011398
X00122702Y00109728
X00129186
X00149122
X00155702
X00212344Y0011938
X0023642Y00122866
X00239452Y001395
X00261597Y00103778
X00277435Y00112121
X00308492Y00103778
X0034036Y00107679
X00362966Y00105156
X00358648Y0013335
X0043807Y00131946
X00414528Y00087376
X00501553Y00058674
X00509382
X00247396Y00060706
X002391
X00213101Y00056593
X00239452Y00153106
X00304253Y00152094
X004318Y00180652
X00466984Y0015724
T02
X000254Y0003175
X000508
X000762
X001016
X00128524Y00031242
X001397Y00127
X001143
X000889
X001524Y0003175
X001778
X002032
X002286
X00254
X002794
X003048
X003302
X003556
X00381
X004064
X004318
X004572
X004826
X00508
Y000762
Y001016
Y00127
Y001524
Y0019685
X004826
X004572
X004318
X004064
X00381
X003556
X003302
X003048
X002794
X00254
X002286
X002032
X001778
X001524
X00128524Y00196342
X001016Y0019685
X000762
X000508
X000254
X000889Y001524
X001143
X001397
M30
